<svg width="72" height="68" viewBox="0 0 72 68" fill="none" xmlns="http://www.w3.org/2000/svg">
<g clip-path="url(#clip0)">
<path d="M48.2976 33.2776V25.2746C48.2976 22.7291 46.2358 20.6672 43.6903 20.6672C42.1733 20.6672 40.7549 21.414 39.8955 22.6633L37.9464 25.4906C36.6126 27.4256 35.8987 29.7223 35.8987 32.0752V35.7198C35.8987 36.9362 36.885 37.9225 38.1014 37.9225H47.1705" stroke="#00BCD4" stroke-width="3" stroke-miterlimit="10" stroke-linecap="round"/>
<path d="M35.8987 35.7151C35.8987 36.9315 34.9124 37.9179 33.696 37.9179H25.7071C24.4907 37.9179 23.5044 36.9315 23.5044 35.7151V25.2699C23.5044 22.7244 25.5662 20.6625 28.1117 20.6625C29.6287 20.6625 31.0471 21.4093 31.9066 22.6586L33.8556 25.4859C34.795 26.8479 35.6122 29.2574 35.9034 30.873" stroke="#00BCD4" stroke-width="3" stroke-miterlimit="10" stroke-linecap="round"/>
<path d="M57.0899 32.6763V27.2706C57.0899 23.7904 53.7976 21.7099 50.928 22.3956" stroke="#00BCD4" stroke-width="3" stroke-miterlimit="10" stroke-linecap="round"/>
<path d="M65.3934 32.6765C65.7644 32.3054 65.9992 31.7889 65.9992 31.2206V24.9224C65.9992 20.4889 60.6592 18.3284 57.644 21.2638" stroke="#00BCD4" stroke-width="3" stroke-miterlimit="10" stroke-linecap="round"/>
<path d="M14.4729 33.2776H7.74271C6.60614 33.2776 5.68091 32.3571 5.68091 31.2159V24.9177C5.68091 20.6344 10.6593 18.4787 13.7167 20.9726" stroke="#00BCD4" stroke-width="3" stroke-miterlimit="10" stroke-linecap="round"/>
<path d="M23.3823 35.6259H16.6521C15.5155 35.6259 14.5903 34.7054 14.5903 33.5641V27.266C14.5903 23.8374 17.784 21.771 20.6254 22.3628" stroke="#00BCD4" stroke-width="3" stroke-miterlimit="10" stroke-linecap="round"/>
<path d="M64.6512 20.6672C64.8766 19.0751 65.1068 17.4501 64.8156 15.872C64.5291 14.2893 63.632 12.7301 62.1714 12.0632C60.6403 11.3681 58.8556 11.7673 57.2212 12.1759C52.0785 13.4721 46.9357 14.7684 41.793 16.0647C36.9837 17.2764 35.9645 17.5347 30.1267 16.0647C24.9839 14.7684 19.8412 13.4721 14.6984 12.1759C13.064 11.7626 11.284 11.3634 9.74823 12.0632C8.2829 12.7301 7.39055 14.2893 7.10406 15.872C6.81757 17.4548 7.04299 19.0798 7.26843 20.6672" stroke="#00BCD4" stroke-width="3" stroke-miterlimit="10" stroke-linecap="round"/>
<path d="M65.4731 50.8522V54.0694C65.4731 55.6287 64.2098 56.8968 62.6458 56.9015C43.7656 56.9578 42.4364 57.4322 32.5078 51.97C23.6407 47.095 16.1262 47.1325 8.10446 47.203C6.3949 47.217 5 45.8363 5 44.1268C5 42.4313 6.37611 41.0552 8.07158 41.0505C20.757 41.0082 25.8105 40.8909 32.8225 45.5452C41.638 51.3924 48.542 50.8569 48.542 50.8569H61.8474V44.0422" stroke="#00BCD4" stroke-width="3" stroke-miterlimit="10" stroke-linecap="round" stroke-linejoin="round"/>
<path d="M65.4731 50.8522V44.0374" stroke="#00BCD4" stroke-width="3" stroke-miterlimit="10" stroke-linecap="round" stroke-linejoin="round"/>
<path d="M58.217 50.8522V44.0374" stroke="#00BCD4" stroke-width="3" stroke-miterlimit="10" stroke-linecap="round" stroke-linejoin="round"/>
<path d="M54.5913 50.8522V44.0374" stroke="#00BCD4" stroke-width="3" stroke-miterlimit="10" stroke-linecap="round" stroke-linejoin="round"/>
<path d="M50.9607 50.8522V44.0374" stroke="#00BCD4" stroke-width="3" stroke-miterlimit="10" stroke-linecap="round" stroke-linejoin="round"/>
<path d="M65.3463 36.3491C64.5667 35.1327 63.1248 34.3671 61.6783 34.4094C60.4525 34.4423 59.344 34.9965 58.2169 35.5272V35.5225C58.0008 35.6212 57.7989 35.7151 57.6157 35.7856C55.4882 36.5887 52.7172 36.2411 50.862 34.926C50.2233 36.2223 50.3125 37.852 51.0922 39.0685C51.8718 40.2849 53.3136 41.0504 54.7602 41.0081C55.986 40.9752 57.0944 40.4211 58.2216 39.8904V39.8951C58.4376 39.7964 58.6396 39.7025 58.8227 39.632C60.9503 38.8289 63.7213 39.1765 65.5764 40.4915C66.2151 39.1953 66.1259 37.5655 65.3463 36.3491Z" fill="#FF5722"/>
</g>
<defs>
<clipPath id="clip0">
<rect width="72" height="68" fill="white"/>
</clipPath>
</defs>
</svg>
