<svg width="60" height="65" viewBox="0 0 60 65" fill="none" xmlns="http://www.w3.org/2000/svg">
<path d="M58 24.3586V59.1678C58 61.2812 56.2792 62.9999 54.1522 62.9999C52.0302 62.9999 50.3045 61.2862 50.3045 59.1678V24.3586" stroke="#00BCD4" stroke-width="3" stroke-miterlimit="10" stroke-linecap="round" stroke-linejoin="round"/>
<path d="M58 24.3586L56.6204 19.4424H54.1522H51.6841L50.3045 24.3586H54.1522" stroke="#00BCD4" stroke-width="3" stroke-miterlimit="10" stroke-linecap="round" stroke-linejoin="round"/>
<path d="M51.6841 19.4423C51.0721 17.4838 50.766 15.4453 50.766 13.3918V12.9771C50.766 9.16489 51.9499 5.44775 54.1522 2.33008C56.3545 5.44775 57.5384 9.16489 57.5384 12.9771V13.3918C57.5384 15.4453 57.2274 17.4838 56.6204 19.4423" stroke="#00BCD4" stroke-width="3" stroke-miterlimit="10" stroke-linecap="round" stroke-linejoin="round"/>
<path d="M18.625 37.6388L5.23567 2.37" stroke="#00BCD4" stroke-width="3" stroke-miterlimit="10" stroke-linecap="round" stroke-linejoin="round"/>
<path d="M24.7902 37.6438L28.3872 47.1167C30.143 45.1232 33.2632 44.6486 35.7314 45.6578C40.2965 47.5265 42.6843 53.8018 40.7379 58.2784C40.0557 59.8473 38.9771 61.0363 37.7029 61.8457C33.5642 64.4688 28.0309 62.4053 26.2952 57.8387L21.7101 45.7627" stroke="#00BCD4" stroke-width="3" stroke-miterlimit="10" stroke-linecap="round" stroke-linejoin="round"/>
<path d="M5.23567 2.37002C7.48309 1.52065 10.0266 2.16516 11.5968 3.97881L12.3392 4.83815L21.7101 29.5198" stroke="#00BCD4" stroke-width="3" stroke-miterlimit="10" stroke-linecap="round" stroke-linejoin="round"/>
<path d="M24.7902 37.6438L38.1846 2.37" stroke="#00BCD4" stroke-width="3" stroke-miterlimit="10" stroke-linecap="round" stroke-linejoin="round"/>
<path d="M38.1846 2.37002C35.9371 1.52065 33.3936 2.16516 31.8235 3.97881L31.081 4.83815L15.033 47.1117C13.2772 45.1182 10.152 44.6436 7.68882 45.6528C3.12375 47.5214 0.735871 53.7968 2.6823 58.2734C3.36455 59.8423 4.44314 61.0313 5.71735 61.8407C9.85601 64.4638 15.3893 62.4003 17.125 57.8337L22.4777 42.9698" stroke="#00BCD4" stroke-width="3" stroke-miterlimit="10" stroke-linecap="round" stroke-linejoin="round"/>
<path d="M5.59199 51.973C4.87462 53.7317 4.81942 55.6452 5.44649 57.0842C5.85785 58.0335 6.49496 58.7829 7.33775 59.3125C8.05512 59.7671 8.86276 60.002 9.69551 60.002C10.1921 60.002 10.6938 59.9171 11.1955 59.7522C12.6302 59.2776 13.7639 58.1983 14.3057 56.7993L14.4813 56.3047C13.2322 55.865 12.0633 55.2006 11.1553 54.2463C9.67038 52.6875 9.04833 50.4791 9.15368 48.3157C9.04332 48.3506 8.93802 48.3856 8.83267 48.4306C7.45813 48.9902 6.27926 50.2792 5.59199 51.973Z" fill="#FF5722"/>
<path d="M37.6026 51.973C38.3199 53.7317 38.3751 55.6452 37.7481 57.0842C37.3367 58.0335 36.6996 58.7829 35.8568 59.3125C35.1394 59.7671 34.3318 60.002 33.4991 60.002C33.0024 60.002 32.5008 59.9171 31.9991 59.7522C30.5644 59.2776 29.4306 58.1983 28.8889 56.7993L28.7132 56.3047C29.9624 55.865 31.1313 55.2006 32.0393 54.2463C33.5242 52.6875 34.1462 50.4791 34.0409 48.3157C34.1512 48.3506 34.2565 48.3856 34.3619 48.4306C35.7314 48.9902 36.9153 50.2792 37.6026 51.973Z" fill="#FF5722"/>
</svg>
