<svg width="72" height="56" viewBox="0 0 72 56" fill="none" xmlns="http://www.w3.org/2000/svg">
<path d="M56.5301 36.8126L63.4691 43.7516C64.7382 45.0207 64.7382 47.0837 63.4691 48.3528C62.1999 49.622 60.137 49.622 58.8678 48.3528L51.9289 41.4139" stroke="#00BCD4" stroke-width="3" stroke-miterlimit="10" stroke-linecap="round" stroke-linejoin="round"/>
<path d="M56.5301 36.8127L52.7575 34.6887L51.2791 36.1629L49.8049 37.637L51.9333 41.4139L54.2317 39.1111" stroke="#00BCD4" stroke-width="3" stroke-miterlimit="10" stroke-linecap="round" stroke-linejoin="round"/>
<path d="M52.7575 34.6885L38.4129 20.3439C37.5494 29.3065 45.4696 35.2511 49.8092 37.6411" stroke="#00BCD4" stroke-width="3" stroke-miterlimit="10" stroke-linecap="round" stroke-linejoin="round"/>
<path d="M39.2547 32.2638C38.8883 34.1305 38.3693 35.9012 37.7063 37.5106C30.4926 55.0433 19.0134 53.9879 19.0134 53.9879C10.6788 53.9879 8.68571 47.6595 8.68571 47.6595" stroke="#00BCD4" stroke-width="3" stroke-miterlimit="10" stroke-linecap="round" stroke-linejoin="round"/>
<path d="M7.34674 20.2306C7.34674 20.2306 10.0552 2 24.016 2C32.355 2 37.2571 8.95205 39.0889 17.3172" stroke="#00BCD4" stroke-width="3" stroke-miterlimit="10" stroke-linecap="round" stroke-linejoin="round"/>
<path d="M20.7319 29.9215C20.7319 29.9215 15.991 27.9938 13.5443 24.3477C13.5443 24.3477 13.1561 25.1458 12.7941 26.2449C12.1137 28.3122 12.4976 30.5452 13.6533 32.3857C14.4166 33.5982 14.7873 35.5346 11.7168 37.5278C11.7168 37.5278 11.6863 40.4238 12.5237 44.2225C13.1823 47.2057 15.8166 49.369 18.8739 49.4039C18.9175 49.4039 18.9655 49.4039 19.0091 49.4039H19.3275L19.3929 49.4169C19.4016 49.4169 19.4103 49.4169 19.4191 49.4169C20.4091 49.4169 28.0284 48.9764 33.4584 35.7658C36.5637 28.2162 35.7656 17.1165 31.6833 11.0237C29.6814 8.03611 27.1693 6.58374 24.0073 6.58374C22.4895 6.58374 21.1549 6.91959 19.9773 7.48221C16.7674 9.02614 14.8047 12.4018 14.9181 15.9607C15.014 18.9832 16.3225 22.8386 21.4559 25.5427" stroke="#00BCD4" stroke-width="3" stroke-miterlimit="10" stroke-linecap="round" stroke-linejoin="round"/>
<path d="M32.6428 53.5211C32.6428 53.5211 40.1095 48.5622 43.0578 36.8126" stroke="#00BCD4" stroke-width="3" stroke-miterlimit="10" stroke-linecap="round" stroke-linejoin="round" stroke-dasharray="7 7"/>
<path d="M29.5201 12.4803C28.0023 10.2124 26.3014 9.20056 24.016 9.20056C22.9649 9.20056 22.0141 9.4099 21.1201 9.84167C18.8652 10.9277 17.4608 13.2959 17.5437 15.8779C17.5655 16.5364 17.6615 17.1645 17.8272 17.7663C19.1443 15.9651 21.3512 14.7351 23.5668 14.9619C25.1979 15.1277 26.6852 16.048 27.8148 17.243C28.94 18.438 29.7425 19.8947 30.4621 21.3688C31.3126 23.1178 32.0584 24.9146 32.7039 26.7508C32.9612 21.4691 31.8491 15.9564 29.5201 12.4803Z" fill="#FF5722"/>
</svg>
