<svg width="41" height="63" viewBox="0 0 41 63" fill="none" xmlns="http://www.w3.org/2000/svg">
<path d="M2 22.6887C2 22.6887 5.07814 2 20.9318 2C38.0812 2 42.427 27.848 36.4813 42.2885C28.2902 62.1827 15.2527 60.9862 15.2527 60.9862C5.78451 60.9862 3.52034 53.8081 3.52034 53.8081" stroke="#00BCD4" stroke-width="3" stroke-miterlimit="10" stroke-linecap="round" stroke-linejoin="round"/>
<path d="M17.2034 33.6848C17.2034 33.6848 11.8191 31.4978 9.04039 27.362C9.04039 27.362 8.60063 28.2637 8.18897 29.5115C7.41711 31.8575 7.8522 34.3905 9.16671 36.4794C10.0321 37.8534 10.4531 40.0498 6.96803 42.3117C6.96803 42.3117 6.93532 45.597 7.88495 49.9058C8.63343 53.2893 11.6273 55.7428 15.0937 55.7849C15.1451 55.7849 15.1966 55.7849 15.2481 55.7849H15.613L15.6878 55.7988C15.6971 55.7988 15.7065 55.7988 15.7159 55.7988C16.8386 55.7988 25.4928 55.2989 31.663 40.3116C35.1902 31.7455 34.2874 19.1508 29.6468 12.239C27.3734 8.85087 24.5198 7.20129 20.9271 7.20129C19.2056 7.20129 17.6853 7.57968 16.3474 8.21993C12.7032 9.97241 10.4718 13.8 10.6028 17.8424C10.7104 21.2726 12.198 25.6468 18.0267 28.7172" stroke="#00BCD4" stroke-width="3" stroke-miterlimit="10" stroke-linecap="round" stroke-linejoin="round"/>
<path d="M20.9318 10.0099C19.7108 10.0099 18.6115 10.2531 17.5683 10.7531C14.9486 12.0102 13.316 14.7627 13.4096 17.7582C13.4938 20.3846 14.5697 22.6045 16.614 24.3944C16.4877 23.642 16.3941 22.8848 16.352 22.123C16.2398 20.2023 16.455 18.1042 17.7648 16.6928C19.0138 15.3469 21.0394 14.9356 22.8497 15.2441C24.6601 15.5525 26.3021 16.4871 27.8318 17.5059C28.4399 17.9078 29.0293 18.333 29.6141 18.763C29.0293 16.8936 28.2621 15.2021 27.3218 13.8001C25.5629 11.1784 23.5889 10.0099 20.9318 10.0099Z" fill="#FF5722"/>
</svg>
