<svg width="66" height="72" viewBox="0 0 66 72" fill="none" xmlns="http://www.w3.org/2000/svg">
<path d="M55.6496 70C54.9025 67.3156 56.3384 64.5352 57.8961 62.2297C58.0763 61.9629 58.2564 61.6854 58.4313 61.4025C60.1957 58.5421 60.1003 55.1213 58.6379 52.4316" stroke="#00BCD4" stroke-width="3" stroke-miterlimit="10" stroke-linecap="round"/>
<path d="M61.0752 45.7875C61.462 47.8955 61.7588 50.377 59.8513 51.7486C59.2526 52.1808 58.5161 52.3996 57.7796 52.4317C55.9251 52.517 54.3091 51.6205 52.7937 50.6812C51.681 49.9928 50.4041 49.235 49.1484 49.6086C48.5549 49.7847 48.041 50.2703 47.7549 50.852C47.527 51.3163 46.9866 51.5458 46.4832 51.4337C44.6182 51.0174 42.8008 50.2596 41.5451 48.8401C39.6429 46.6947 39.431 43.4394 40.2787 40.6963C41.1265 37.9532 42.8697 35.5944 44.5864 33.2997L59.1678 13.7781C61.6952 10.3946 63.3536 6.42948 63.9894 2.24019L64 2.17615" stroke="#00BCD4" stroke-width="3" stroke-miterlimit="10" stroke-linecap="round" stroke-linejoin="round"/>
<path d="M17.8503 70C17.1032 67.3156 18.5391 64.5352 20.0969 62.2297C20.277 61.9629 20.4572 61.6854 20.632 61.4025C22.3964 58.5421 22.301 55.1213 20.8387 52.4316" stroke="#00BCD4" stroke-width="3" stroke-miterlimit="10" stroke-linecap="round"/>
<path d="M23.2707 45.7875C23.6574 47.8954 23.9541 50.377 22.0467 51.7485C21.4479 52.1808 20.7115 52.3996 19.975 52.4316C18.1206 52.517 16.5045 51.6205 14.9891 50.6812C13.8765 49.9928 12.5995 49.235 11.3438 49.6085C10.7504 49.7846 10.2364 50.2703 9.95029 50.852C9.72245 51.3163 9.182 51.5457 8.67864 51.4337C6.81358 51.0174 4.99623 50.2596 3.74049 48.84C1.83834 46.6947 1.6264 43.4393 2.47415 40.6963C2.47415 40.6963 5.75921 22.9625 20.7592 10.8589C22.656 9.32728 24.2403 7.41675 25.3212 5.22338C25.798 4.25744 26.2113 3.17407 26.4762 2" stroke="#00BCD4" stroke-width="3" stroke-miterlimit="10" stroke-linecap="round" stroke-linejoin="round"/>
<path d="M23.2494 23.4481H37.6348" stroke="#00BCD4" stroke-width="3" stroke-miterlimit="10" stroke-linecap="round" stroke-linejoin="round"/>
<path d="M37.2268 18.8479L41.8948 23.5495L37.4282 28.0483" stroke="#00BCD4" stroke-width="3" stroke-miterlimit="10" stroke-linecap="round" stroke-linejoin="round"/>
<path d="M12.8115 34.0307C14.8196 29.6173 15.9217 24.8036 16.1071 19.9579C7.76204 30.1136 5.62148 41.1445 5.60028 41.2779L5.56846 41.4647L5.51549 41.6462C4.90616 43.6207 5.1446 45.606 6.11952 46.7053C6.56989 47.2123 7.24807 47.6339 8.14351 47.9541C8.78463 47.2924 9.57938 46.8014 10.4483 46.5399C10.9888 46.3798 11.5187 46.3104 12.0273 46.3104C14.0037 46.3104 15.6727 47.3457 16.6635 47.9594C17.1298 48.2476 17.543 48.4931 17.9298 48.6906C17.5006 46.6946 16.5787 44.7948 15.0262 43.5033C13.9559 42.6121 12.5942 42.0037 11.8737 40.8083C11.259 39.789 11.2325 38.5029 11.508 37.3448C11.7729 36.1814 12.3187 35.1141 12.8115 34.0307Z" fill="#FF5722"/>
<path d="M43.3148 41.6409C42.7054 43.6155 42.9439 45.6007 43.9188 46.7001C44.3692 47.207 45.0473 47.6287 45.9481 47.9489C46.5892 47.2871 47.384 46.7961 48.253 46.5346C48.7934 46.3745 49.3233 46.3052 49.8319 46.3052C51.8082 46.3052 53.4773 47.3405 54.4681 47.9542C55.088 48.3384 55.6231 48.6426 56.1053 48.8614C56.0788 48.4345 56.0364 48.0076 55.9569 47.5806C55.6284 45.7822 54.6535 44.005 53.0321 43.1885C51.8718 42.6068 50.3458 42.4361 49.7365 41.2833C49.302 40.4668 49.5511 39.4262 50.0703 38.663C50.5896 37.8999 51.3472 37.3395 52.0466 36.7365C55.0032 34.1856 57.0855 30.6206 57.8591 26.7782C58.2777 24.7023 58.3148 22.6103 58.1187 20.5183L47.135 35.2209C45.5931 37.2701 44.0089 39.3942 43.3148 41.6409Z" fill="#A0B4C3"/>
</svg>
