<svg width="72" height="56" viewBox="0 0 72 56" fill="none" xmlns="http://www.w3.org/2000/svg">
<path d="M19.2619 48.2225C8.68989 50.02 3.82979 41.7658 3.82979 41.7658C16.7694 40.2245 13.073 22.5502 17.3045 13.1743C23.8724 -1.35999 47.3617 -1.36882 53.9296 13.1743C57.9871 22.1527 54.478 40.2245 67.4043 41.7658C67.4043 41.7658 62.5442 50.02 51.9722 48.2225" stroke="#00BCD4" stroke-width="3" stroke-miterlimit="10" stroke-linecap="round" stroke-linejoin="round"/>
<path d="M43.7233 24.2151C45.6673 25.6593 48.0171 27.0725 50.5809 27.6467" stroke="#00BCD4" stroke-width="3" stroke-miterlimit="10" stroke-linecap="round" stroke-linejoin="round"/>
<path d="M33.7176 17.8424C34.7565 18.0941 35.8132 18.4828 36.8699 19.0304" stroke="#00BCD4" stroke-width="3" stroke-miterlimit="10" stroke-linecap="round" stroke-linejoin="round"/>
<path d="M47.2769 45.1929C46.7954 46.1512 46.2425 47.1008 45.6138 48.0547C43.2684 51.6231 39.5542 53.7297 35.6036 53.7297C31.6531 53.7297 27.9388 51.6231 25.5934 48.0547C21.6116 41.757 20.8225 31.5287 20.6664 27.7218C20.5104 23.9723 22.3519 20.8455 25.2055 19.0745" stroke="#00BCD4" stroke-width="3" stroke-miterlimit="10" stroke-linecap="round" stroke-linejoin="round"/>
<path d="M50.5809 27.6467C50.5809 30.9148 50.4383 33.9003 49.9791 36.7312" stroke="#00BCD4" stroke-width="3" stroke-miterlimit="10" stroke-linecap="round" stroke-linejoin="round"/>
<path d="M45.1947 16.7736C45.819 17.3919 45.819 18.3944 45.1947 19.0127L41.0212 23.1464L38.7605 20.9073L42.9341 16.7736C43.5583 16.1553 44.5705 16.1553 45.1947 16.7736Z" stroke="#00BCD4" stroke-width="3" stroke-miterlimit="10" stroke-linecap="round" stroke-linejoin="round"/>
<path d="M39.8931 22.0247L36.6292 25.2574" stroke="#00BCD4" stroke-width="3" stroke-miterlimit="10" stroke-linecap="round" stroke-linejoin="round"/>
<path d="M56.6361 40.9576C56.6361 41.8321 55.9227 42.5387 55.0398 42.5387H49.1363V39.3766H55.0398C55.9227 39.3766 56.6361 40.0832 56.6361 40.9576Z" stroke="#00BCD4" stroke-width="3" stroke-miterlimit="10" stroke-linecap="round" stroke-linejoin="round"/>
<path d="M49.1407 40.9576H44.5259" stroke="#00BCD4" stroke-width="3" stroke-miterlimit="10" stroke-linecap="round" stroke-linejoin="round"/>
<path d="M29.4772 13.2582C30.3601 13.2582 31.0734 13.9648 31.0734 14.8392V20.6865H27.8809V14.8392C27.8809 13.9648 28.5988 13.2582 29.4772 13.2582Z" stroke="#00BCD4" stroke-width="3" stroke-miterlimit="10" stroke-linecap="round" stroke-linejoin="round"/>
<path d="M29.4772 20.6865V25.2574" stroke="#00BCD4" stroke-width="3" stroke-miterlimit="10" stroke-linecap="round" stroke-linejoin="round"/>
<path d="M35.6215 4.9201C30.0524 4.9201 23.0297 7.31818 19.8639 14.0134C23.587 11.2134 28.0102 9.29231 32.6563 8.86833C37.9401 8.38695 43.4825 9.96358 47.3706 13.5452C49.6268 15.6209 51.2498 18.2619 53.0824 20.713C53.1092 20.7484 53.1404 20.7881 53.1671 20.8234C52.7747 18.3149 52.2932 16.0273 51.4951 14.2563C48.3783 7.37119 41.2531 4.9201 35.6215 4.9201Z" fill="#FF5722"/>
</svg>
