<svg width="76" height="52" viewBox="0 0 76 52" fill="none" xmlns="http://www.w3.org/2000/svg">
<path d="M74 25.1816C74 25.1816 67.6718 20.8869 61.4278 10.9367C61.4278 10.9367 51.6662 -5.30377 38 6.0017C24.3338 -5.30377 14.5722 10.9367 14.5722 10.9367C8.32259 20.8869 2 25.1816 2 25.1816" stroke="#00BCD4" stroke-width="3" stroke-miterlimit="10" stroke-linecap="round"/>
<path d="M74 25.1816C74 25.1816 61.3492 28.1268 53.5399 19.2917C53.5399 19.2917 47.094 11.9663 38 16.2666C28.9004 11.9663 22.46 19.2917 22.46 19.2917C14.6507 28.1268 2 25.1816 2 25.1816" stroke="#00BCD4" stroke-width="3" stroke-miterlimit="10" stroke-linecap="round"/>
<path d="M55.3127 21.0528C55.3127 21.0528 48.9284 23.8322 37.9944 23.8322C27.0603 23.8322 20.676 21.0528 20.676 21.0528" stroke="#00BCD4" stroke-width="3" stroke-miterlimit="10" stroke-linecap="round"/>
<path d="M74 25.1818C74 25.1818 68.4179 30.42 63.3632 37.591C60.4516 41.7198 56.6143 45.1108 52.0477 47.1466C48.4348 48.7592 43.7728 50 38 50C32.2272 50 27.5652 48.7592 23.9523 47.1466C19.3801 45.1108 15.5484 41.7198 12.6368 37.591C7.58209 30.4143 2 25.1818 2 25.1818" stroke="#00BCD4" stroke-width="3" stroke-miterlimit="10" stroke-linecap="round"/>
<path d="M67.2734 25.5936C67.2734 25.5936 64.373 26.7944 60.5694 29.076C51.2791 34.6516 43.6942 34.5943 37.9944 34.5943C32.5245 34.5943 24.8275 34.7202 15.4194 29.076C11.6101 26.7886 8.71527 25.5936 8.71527 25.5936" stroke="#00BCD4" stroke-width="3" stroke-miterlimit="10" stroke-linecap="round"/>
<path d="M38.1907 39.3922H37.9944H37.5849C37.4446 39.3922 37.3044 39.3922 37.1641 39.3922C31.7504 39.3922 24.1599 39.2892 15.1613 35.3091C15.2287 35.4064 15.296 35.498 15.3633 35.5895C18.0449 39.3923 21.4783 42.303 25.2931 44.0014C29.1136 45.7055 33.3885 46.5688 37.9944 46.5688C42.6003 46.5688 46.8752 45.7055 50.6957 44.0014C54.5105 42.303 57.9439 39.3923 60.6255 35.5895C60.6928 35.498 60.7545 35.4121 60.8218 35.3206C51.7615 39.3407 44.1991 39.3922 38.3927 39.3922C38.3254 39.3922 38.2581 39.3922 38.1907 39.3922Z" fill="#FF5722"/>
</svg>
