<svg width="66" height="68" viewBox="0 0 66 68" fill="none" xmlns="http://www.w3.org/2000/svg">
<path d="M39.4548 2C39.3607 4.41421 41.0604 6.60519 43.1366 7.86162C45.2181 9.11805 47.6448 9.63202 50.0035 10.2395C52.3621 10.8417 54.7679 11.5997 56.5827 13.2092C59.7467 16.0128 60.3377 20.6283 60.7195 24.8182C62.8899 30.3215 64.0718 36.9619 63.9934 43.1298C63.9672 45.2845 63.7058 47.4235 63.2612 49.5314" stroke="#00BCD4" stroke-width="3" stroke-miterlimit="10" stroke-linecap="round" stroke-linejoin="round"/>
<path d="M53.7429 43.0573C54.5849 46.0529 54.7208 46.5462 55.5628 49.5367" stroke="#00BCD4" stroke-width="3" stroke-miterlimit="10" stroke-linecap="round" stroke-linejoin="round"/>
<path d="M26.5423 2C26.6364 4.41421 24.9367 6.60519 22.8604 7.86162C20.7842 9.11805 18.3523 9.63202 15.9936 10.2395C13.6349 10.8417 11.2292 11.5997 9.4144 13.2092C6.25032 16.0128 5.65936 20.6283 5.27758 24.8182C3.10718 30.3215 1.92522 36.9619 2.00367 43.1298C2.02982 45.2845 2.29129 47.4235 2.73583 49.5314" stroke="#00BCD4" stroke-width="3" stroke-miterlimit="10" stroke-linecap="round" stroke-linejoin="round"/>
<path d="M12.3641 42.6625C11.7208 44.9521 11.0775 47.247 10.4342 49.5366" stroke="#00BCD4" stroke-width="3" stroke-miterlimit="10" stroke-linecap="round" stroke-linejoin="round"/>
<path d="M54.5012 30.6487C52.3517 36.7958 50.4324 43.0208 48.7536 49.3082C48.6647 49.6456 48.581 49.9831 48.5025 50.3206C47.5873 54.3183 47.6553 58.4718 48.4868 62.4903L49.2138 66" stroke="#00BCD4" stroke-width="3" stroke-miterlimit="10" stroke-linecap="round" stroke-linejoin="round"/>
<path d="M11.4959 30.6487C13.6454 36.7958 15.5648 43.0208 17.2435 49.3082C17.4214 49.9779 17.5782 50.6581 17.709 51.3382C18.3889 54.905 18.3 58.5704 17.6358 62.1372L16.9193 65.9948" stroke="#00BCD4" stroke-width="3" stroke-miterlimit="10" stroke-linecap="round" stroke-linejoin="round"/>
<path d="M49.5 12.5C49.5 13.6867 49.2559 14.9753 48.7402 15.9478C48.2349 16.9009 47.5113 17.4881 46.5299 17.4998C45.8355 17.4117 45.243 17.2934 44.73 17.1467C43.8546 16.8966 43.0189 16.2704 42.3152 15.4187C41.614 14.57 41.0704 13.5284 40.7678 12.5044C40.4627 11.472 40.4178 10.5105 40.6463 9.79989C40.8627 9.12683 41.325 8.65818 42.1563 8.52574C42.2606 8.50914 42.3748 8.5 42.5 8.5C43.6423 8.5 45.438 8.97385 46.9511 9.76153C47.7033 10.1531 48.3562 10.6073 48.8143 11.0919C49.2745 11.5787 49.5 12.0537 49.5 12.5Z" fill="#FF5722" stroke="#00BCD4"/>
<circle cx="39" cy="18" r="1.8" fill="#FF5722" stroke="#00BCD4" stroke-width="0.4"/>
<circle r="1.8" transform="matrix(1 0 0 -1 23 51)" fill="#FF5722" stroke="#00BCD4" stroke-width="0.4"/>
<circle r="0.9" transform="matrix(1 0 0 -1 28 48)" fill="#FF5722" stroke="#00BCD4" stroke-width="0.2"/>
<circle cx="47.5" cy="22.5" r="2.3" fill="#FF5722" stroke="#00BCD4" stroke-width="0.4"/>
<circle r="2.3" transform="matrix(1 0 0 -1 22.5 44.5)" fill="#FF5722" stroke="#00BCD4" stroke-width="0.4"/>
</svg>
