<svg width="69" height="57" viewBox="0 0 69 57" fill="none" xmlns="http://www.w3.org/2000/svg">
<path d="M57.0898 32.4407C58.457 37.7174 60.9931 41.9555 67 42.6773C67 42.6773 62.0295 51.1799 51.2197 49.3271" stroke="#00BCD4" stroke-width="3" stroke-miterlimit="10" stroke-linecap="round" stroke-linejoin="round"/>
<path d="M17.7803 49.3272C6.97049 51.18 2 42.6773 2 42.6773C15.2311 41.0886 11.447 22.8819 15.778 13.2307C22.4905 -1.74135 46.505 -1.74575 53.222 13.2307C54.7348 16.6018 55.2155 21.2139 55.8638 25.7953" stroke="#00BCD4" stroke-width="3" stroke-miterlimit="10" stroke-linecap="round" stroke-linejoin="round"/>
<path d="M22.5567 45.8152C19.9414 39.4998 19.3503 31.5121 19.2136 28.2114C18.852 19.2995 29.331 13.8115 38.4296 20.9851C39.616 21.9181 41.6403 23.9029 44.1895 25.5884" stroke="#00BCD4" stroke-width="3" stroke-miterlimit="10" stroke-linecap="round" stroke-linejoin="round"/>
<path d="M48.1985 41.7575C47.4311 44.2748 46.3154 46.7086 44.7188 49.1555C42.3196 52.8303 38.5222 55 34.4867 55C33.5782 55 32.6829 54.89 31.8097 54.6787" stroke="#00BCD4" stroke-width="3" stroke-miterlimit="10" stroke-linecap="round" stroke-linejoin="round"/>
</svg>
