<svg width="72" height="56" viewBox="0 0 72 56" fill="none" xmlns="http://www.w3.org/2000/svg">
<g clip-path="url(#clip0)">
<path d="M40.6608 8.15253C43.2975 11.255 47.9474 11.5555 51.418 13.6851C53.9157 15.2176 55.7637 17.7229 56.6614 20.5136C57.5591 23.3043 57.5365 26.3542 56.7778 29.1862C58.8699 34.3056 59.4821 40.3152 58.6258 45.7802" stroke="#00BCD4" stroke-width="3" stroke-miterlimit="10" stroke-linecap="round" stroke-linejoin="round"/>
<path d="M50.6743 40.056C51.3278 42.1932 52.1654 44.274 53.1795 46.2647" stroke="#00BCD4" stroke-width="3" stroke-miterlimit="10" stroke-linecap="round" stroke-linejoin="round"/>
<path d="M49.2883 55.0876C49.2883 55.0876 47.1136 43.2487 49.2883 35.7367C49.2883 35.7367 53.0594 24.9381 47.5192 19.0224" stroke="#00BCD4" stroke-width="3" stroke-miterlimit="10" stroke-linecap="round" stroke-linejoin="round"/>
<path d="M23.4808 19.0224C17.9407 24.9381 21.7117 35.7367 21.7117 35.7367C23.8864 43.2487 21.7117 55.0876 21.7117 55.0876" stroke="#00BCD4" stroke-width="3" stroke-miterlimit="10" stroke-linecap="round" stroke-linejoin="round"/>
<path d="M30.3392 8.15253C27.7025 11.255 23.0526 11.5555 19.5821 13.6851C17.0843 15.2176 15.2363 17.7229 14.3386 20.5136C13.4409 23.3043 13.4635 26.3542 14.2222 29.1862C12.1301 34.3056 11.5179 40.3152 12.3742 45.7802" stroke="#00BCD4" stroke-width="3" stroke-miterlimit="10" stroke-linecap="round" stroke-linejoin="round"/>
<path d="M20.2393 40.334C19.6008 42.3735 18.7895 44.3604 17.8204 46.2647" stroke="#00BCD4" stroke-width="3" stroke-miterlimit="10" stroke-linecap="round" stroke-linejoin="round"/>
<path d="M24.2996 33.4718C27.2105 34.3582 30.482 34.0014 33.1337 32.5027" stroke="#00BCD4" stroke-width="3" stroke-miterlimit="10" stroke-linecap="round" stroke-linejoin="round"/>
<path d="M46.4075 33.4718C43.4965 34.3582 40.225 34.0014 37.5733 32.5027" stroke="#00BCD4" stroke-width="3" stroke-miterlimit="10" stroke-linecap="round" stroke-linejoin="round"/>
<path d="M35.5 38.118V53.2021" stroke="#00BCD4" stroke-width="3" stroke-miterlimit="10" stroke-linecap="round" stroke-linejoin="round"/>
<path d="M37.8362 41.1228C39.1208 41.5885 40.5744 41.5584 41.8364 41.0401" stroke="#00BCD4" stroke-width="3" stroke-miterlimit="10" stroke-linecap="round" stroke-linejoin="round"/>
<path d="M37.8362 44.9614C39.1208 45.4272 40.5744 45.3971 41.8364 44.8788" stroke="#00BCD4" stroke-width="3" stroke-miterlimit="10" stroke-linecap="round" stroke-linejoin="round"/>
<path d="M37.8362 48.8001C39.1208 49.2658 40.5744 49.2358 41.8364 48.7175" stroke="#00BCD4" stroke-width="3" stroke-miterlimit="10" stroke-linecap="round" stroke-linejoin="round"/>
<path d="M33.2464 41.1228C31.9619 41.5885 30.5083 41.5584 29.2462 41.0401" stroke="#00BCD4" stroke-width="3" stroke-miterlimit="10" stroke-linecap="round" stroke-linejoin="round"/>
<path d="M33.2464 44.9614C31.9619 45.4272 30.5083 45.3971 29.2462 44.8788" stroke="#00BCD4" stroke-width="3" stroke-miterlimit="10" stroke-linecap="round" stroke-linejoin="round"/>
<path d="M33.2464 48.8001C31.9619 49.2658 30.5083 49.2358 29.2462 48.7175" stroke="#00BCD4" stroke-width="3" stroke-miterlimit="10" stroke-linecap="round" stroke-linejoin="round"/>
<path d="M33.6408 30.0013C33.5694 29.5694 33.468 29.1412 33.3403 28.7242" stroke="#00BCD4" stroke-width="3" stroke-linecap="round" stroke-linejoin="round"/>
<path d="M31.7365 25.648C31.4886 25.3287 31.2181 25.0245 30.9289 24.7353C30.2265 24.0404 29.4153 23.4582 28.5363 23.0075" stroke="#00BCD4" stroke-width="3" stroke-linecap="round" stroke-linejoin="round" stroke-dasharray="6.49 6.49"/>
<path d="M26.9212 22.3653C26.5006 22.2376 26.0724 22.1437 25.6405 22.076" stroke="#00BCD4" stroke-width="3" stroke-linecap="round" stroke-linejoin="round"/>
<path d="M37.2353 30.0013C37.3067 29.5694 37.4081 29.1412 37.5358 28.7242" stroke="#00BCD4" stroke-width="3" stroke-linecap="round" stroke-linejoin="round"/>
<path d="M39.1396 25.648C39.3875 25.3287 39.6579 25.0245 39.9471 24.7353C40.6495 24.0404 41.4608 23.4582 42.3397 23.0075" stroke="#00BCD4" stroke-width="3" stroke-linecap="round" stroke-linejoin="round" stroke-dasharray="6.49 6.49"/>
<path d="M43.9548 22.3653C44.3754 22.2376 44.8036 22.1437 45.2356 22.076" stroke="#00BCD4" stroke-width="3" stroke-linecap="round" stroke-linejoin="round"/>
<path d="M26.2347 15.0276C26.2347 15.0947 26.1787 15.1449 26.1173 15.1449C26.0502 15.1449 26 15.0891 26 15.0276" stroke="#FF5722" stroke-width="3" stroke-miterlimit="10" stroke-linecap="round" stroke-linejoin="round"/>
<path d="M37.3881 17.2346C37.3211 17.2346 37.2709 17.1787 37.2709 17.1173C37.2709 17.0559 37.3267 17 37.3881 17" stroke="#FF5722" stroke-width="3" stroke-miterlimit="10" stroke-linecap="round" stroke-linejoin="round"/>
<path d="M53.1129 19.2158C53.1129 19.2828 53.057 19.333 52.9956 19.333C52.9342 19.333 52.8784 19.2772 52.8784 19.2158" stroke="#FF5722" stroke-width="3" stroke-miterlimit="10" stroke-linecap="round" stroke-linejoin="round"/>
</g>
<defs>
<clipPath id="clip0">
<rect width="72" height="56" fill="white"/>
</clipPath>
</defs>
</svg>
