<svg width="65" height="66" viewBox="0 0 65 66" fill="none" xmlns="http://www.w3.org/2000/svg">
<path d="M36.5994 48.6879L34.6307 51.5258C33.28 53.4689 32.5623 55.7728 32.5623 58.1312V61.7899C32.5623 63.0112 33.5591 64 34.7902 64H42.8744C44.1054 64 45.1022 63.0112 45.1022 61.7899V51.3132C45.1022 48.7621 43.0139 46.6904 40.4421 46.6904C38.902 46.6854 37.4666 47.437 36.5994 48.6879Z" stroke="#00BCD4" stroke-width="3" stroke-miterlimit="10" stroke-linecap="round"/>
<path d="M32.5573 61.785C32.5573 63.0062 31.5605 63.995 30.3294 63.995H22.2502C21.0192 63.995 20.0224 63.0062 20.0224 61.785V51.3083C20.0224 48.7571 22.1107 46.6854 24.6825 46.6854C26.2176 46.6854 27.653 47.432 28.5202 48.6878L30.4889 51.5258C31.4359 52.8953 32.2632 55.313 32.5573 56.9298" stroke="#00BCD4" stroke-width="3" stroke-miterlimit="10" stroke-linecap="round"/>
<path d="M45.0972 61.696H51.9055C53.0568 61.696 53.9888 60.7713 53.9888 59.6292V53.3105C53.9888 49.8199 50.6594 47.7335 47.7537 48.4208" stroke="#00BCD4" stroke-width="3" stroke-miterlimit="10" stroke-linecap="round"/>
<path d="M54.1084 59.3427H60.9167C62.068 59.3427 63 58.418 63 57.2759V50.9573C63 46.5076 57.5973 44.342 54.547 47.2887" stroke="#00BCD4" stroke-width="3" stroke-miterlimit="10" stroke-linecap="round"/>
<path d="M10.8866 59.3426H4.08334C2.93202 59.3426 2 58.418 2 57.2758V50.9573C2 46.6608 7.03391 44.4952 10.129 47.0019" stroke="#00BCD4" stroke-width="3" stroke-miterlimit="10" stroke-linecap="round"/>
<path d="M19.8978 61.696H13.0945C11.9432 61.696 11.0112 60.7714 11.0112 59.6293V53.3106C11.0112 49.8694 14.2409 47.7979 17.1167 48.3912" stroke="#00BCD4" stroke-width="3" stroke-miterlimit="10" stroke-linecap="round"/>
<path d="M16.4538 39.5015C14.6745 39.0565 12.8952 38.6116 11.1159 38.1666C9.46614 37.7562 7.66191 37.3508 6.11187 38.0529C4.6316 38.7204 3.7245 40.2877 3.43542 41.8698C3.14635 43.4569 3.37561 45.0885 3.60488 46.6805" stroke="#00BCD4" stroke-width="3" stroke-miterlimit="10" stroke-linecap="round"/>
<path d="M61.6393 46.6854C61.8686 45.0884 62.0979 43.4618 61.8088 41.8747C61.5197 40.2877 60.6126 38.7253 59.1323 38.0578C57.5823 37.3607 55.7781 37.7612 54.1283 38.1715C48.925 39.4719 43.7266 40.7721 38.5232 42.0725C33.6588 43.2887 32.6271 43.5508 26.721 42.0725C25.5198 41.7709 24.3186 41.4694 23.1125 41.1727" stroke="#00BCD4" stroke-width="3" stroke-miterlimit="10" stroke-linecap="round"/>
<path d="M41.3243 8.62518L26.7708 23.0622C25.8787 23.9472 25.8787 25.381 26.7708 26.266L30.1799 29.6478" stroke="#00BCD4" stroke-width="3" stroke-miterlimit="10" stroke-linecap="round"/>
<path d="M51.3672 18.5926L36.8137 33.0297C35.9216 33.9147 34.4762 33.9147 33.584 33.0297L32.5573 32.0112L28.8143 35.7242C28.0617 36.4708 26.8356 36.4708 26.083 35.7242L24.0545 33.7119C23.3019 32.9654 23.3019 31.7491 24.0545 31.0025L27.7975 27.2894" stroke="#00BCD4" stroke-width="3" stroke-miterlimit="10" stroke-linecap="round"/>
<path d="M25.0663 34.7156L18.901 40.8365" stroke="#00BCD4" stroke-width="3" stroke-miterlimit="10" stroke-linecap="round"/>
<path d="M56.2217 19.2799L40.6315 3.80951" stroke="#00BCD4" stroke-width="3" stroke-miterlimit="10" stroke-linecap="round"/>
<path d="M30.9774 18.8893L34.1024 21.9942" stroke="#00BCD4" stroke-width="3" stroke-miterlimit="10" stroke-linecap="round"/>
<path d="M34.2818 15.6161L37.4068 18.7162" stroke="#00BCD4" stroke-width="3" stroke-miterlimit="10" stroke-linecap="round"/>
<path d="M37.5862 12.3383L40.7113 15.4383" stroke="#00BCD4" stroke-width="3" stroke-miterlimit="10" stroke-linecap="round"/>
<path d="M50.5647 13.6633L56.102 8.17035" stroke="#00BCD4" stroke-width="3" stroke-miterlimit="10" stroke-linecap="round"/>
<path d="M46.2884 9.42621L51.8307 3.92822" stroke="#00BCD4" stroke-width="3" stroke-miterlimit="10" stroke-linecap="round"/>
<path d="M58.0508 10.0985L49.8819 2" stroke="#00BCD4" stroke-width="3" stroke-miterlimit="10" stroke-linecap="round"/>
<path d="M16.4491 42C15.9398 42 15.463 42.158 15.1713 42.4242L13.3426 44.1035C12.3773 44.9886 13.2692 46.2378 14.5724 46.367C15.5917 46.468 16.5936 46.6377 17.5556 46.8771C17.7806 46.9331 18 46.7708 18 46.5388V42.9801C18 42.4389 17.3056 42 16.4491 42Z" fill="#FF5722"/>
</svg>
