<svg width="72" height="68" viewBox="0 0 72 68" fill="none" xmlns="http://www.w3.org/2000/svg">
<g clip-path="url(#clip0)">
<path d="M34.1348 59.3066C33.4027 59.4726 32.6559 59.5555 31.8944 59.5555C28.2726 59.5555 24.8607 57.6031 22.7081 54.2986C19.0522 48.4656 18.2615 38.9865 18.1834 35.4574C18.1395 33.3488 19.9845 30.4299 23.5819 27.9454C26.3299 26.0467 29.5124 24.885 32.817 24.4066L32.8511 24.4017" stroke="#00BCD4" stroke-width="3" stroke-miterlimit="10" stroke-linecap="round" stroke-linejoin="round"/>
<path d="M19.1156 43.9361C12.8239 40.3973 11.5109 31.7088 12.1601 25.2072C12.8629 18.1637 18.1834 11.218 25.9932 9.62183" stroke="#00BCD4" stroke-width="3" stroke-miterlimit="10" stroke-linecap="round" stroke-linejoin="round"/>
<path d="M47.9435 41.0074C50.9063 37.4393 51.9753 32.5289 52.0582 27.6868C52.1022 25.0803 51.8532 22.4201 51.2724 19.8575C49.4078 11.6719 42.872 5.80968 36.4631 4.37463C27.5404 2.37825 24.3384 8.80665 26.7204 13.1216C27.4672 14.4785 29.0633 16.8019 30.0981 18.2809C30.0981 18.2809 31.6894 20.1114 32.4557 23.0693C33.3197 26.4031 35.0866 29.4539 37.7468 31.6357C39.9336 33.432 44.5755 35.0378 45.5176 41.0123" stroke="#00BCD4" stroke-width="3" stroke-miterlimit="10" stroke-linecap="round" stroke-linejoin="round"/>
<path d="M27.1792 13.9027C27.1792 13.9027 22.6886 14.6202 19.7112 19.472" stroke="#00BCD4" stroke-width="3" stroke-miterlimit="10" stroke-linecap="round" stroke-linejoin="round"/>
<path d="M30.0932 18.2809C30.0932 18.2809 25.4415 19.0375 22.8692 23.5916" stroke="#00BCD4" stroke-width="3" stroke-miterlimit="10" stroke-linecap="round" stroke-linejoin="round"/>
<path d="M41.0709 33.5002C42.7695 31.1328 43.365 27.9993 42.6475 25.1731" stroke="#00BCD4" stroke-width="3" stroke-miterlimit="10" stroke-linecap="round" stroke-linejoin="round"/>
<path d="M44.3462 37.5126C44.3462 37.5126 49.1394 32.8462 47.5969 25.1731" stroke="#00BCD4" stroke-width="3" stroke-miterlimit="10" stroke-linecap="round" stroke-linejoin="round"/>
<path d="M45.2408 62.0823C50.2459 61.5818 53.8977 57.1185 53.3971 52.1133C52.8966 47.1082 48.4334 43.4565 43.4282 43.957C38.4231 44.4575 34.7713 48.9207 35.2719 53.9259C35.7724 58.931 40.2356 62.5828 45.2408 62.0823Z" stroke="#00BCD4" stroke-width="3" stroke-miterlimit="10" stroke-linecap="round" stroke-linejoin="round"/>
<path d="M45.049 65.9206C51.8045 65.9206 57.286 60.4439 57.286 53.6836" stroke="#00BCD4" stroke-width="3" stroke-miterlimit="10" stroke-linecap="round" stroke-linejoin="round"/>
<path d="M53.5129 62.5186L58.9895 68" stroke="#00BCD4" stroke-width="3" stroke-miterlimit="10" stroke-linecap="round" stroke-linejoin="round"/>
<path d="M48.8124 52.0877C48.8124 51.9169 48.6708 51.7754 48.4951 51.7705C48.3194 51.7705 48.1778 51.912 48.1778 52.0877" stroke="#FF5722" stroke-width="3" stroke-miterlimit="10" stroke-linecap="round" stroke-linejoin="round"/>
<path d="M39.8262 53.0395C39.9141 53.0395 39.9873 52.898 39.9873 52.7223C39.9873 52.5465 39.9141 52.405 39.8262 52.405" stroke="#FF5722" stroke-width="3" stroke-miterlimit="10" stroke-linecap="round" stroke-linejoin="round"/>
<path d="M45.049 56.7588C44.8733 56.7588 44.7317 56.6172 44.7317 56.4415C44.7317 56.2658 44.8733 56.1243 45.049 56.1243" stroke="#FF5722" stroke-width="3" stroke-miterlimit="10" stroke-linecap="round" stroke-linejoin="round"/>
<path d="M43.2625 49.4617C43.0873 49.4617 42.9453 49.3196 42.9453 49.1444C42.9453 48.9691 43.0873 48.8271 43.2625 48.8271" stroke="#FF5722" stroke-width="3" stroke-miterlimit="10" stroke-linecap="round" stroke-linejoin="round"/>
</g>
<defs>
<clipPath id="clip0">
<rect width="72" height="68" fill="white"/>
</clipPath>
</defs>
</svg>
