<svg width="65" height="49" viewBox="0 0 65 49" fill="none" xmlns="http://www.w3.org/2000/svg">
<path d="M45.2976 23.2776V15.2746C45.2976 12.7291 43.2358 10.6672 40.6903 10.6672C39.1733 10.6672 37.7549 11.414 36.8955 12.6633L34.9464 15.4906C33.6126 17.4256 32.8987 19.7223 32.8987 22.0752V25.7198C32.8987 26.9362 33.885 27.9225 35.1014 27.9225H44.1705" stroke="#00BCD4" stroke-width="3" stroke-miterlimit="10" stroke-linecap="round"/>
<path d="M32.8987 25.7151C32.8987 26.9315 31.9124 27.9179 30.696 27.9179H22.7071C21.4907 27.9179 20.5044 26.9315 20.5044 25.7151V15.2699C20.5044 12.7244 22.5662 10.6625 25.1117 10.6625C26.6287 10.6625 28.0471 11.4093 28.9066 12.6586L30.8556 15.4859C31.795 16.8479 32.6122 19.2574 32.9034 20.873" stroke="#00BCD4" stroke-width="3" stroke-miterlimit="10" stroke-linecap="round"/>
<path d="M54.0899 22.6763V17.2706C54.0899 13.7904 50.7976 11.7099 47.928 12.3956" stroke="#00BCD4" stroke-width="3" stroke-miterlimit="10" stroke-linecap="round"/>
<path d="M62.3934 22.6765C62.7644 22.3054 62.9992 21.7889 62.9992 21.2206V14.9224C62.9992 10.4889 57.6592 8.32841 54.644 11.2638" stroke="#00BCD4" stroke-width="3" stroke-miterlimit="10" stroke-linecap="round"/>
<path d="M11.4729 23.2776H4.74271C3.60614 23.2776 2.68091 22.3571 2.68091 21.2159V14.9177C2.68091 10.6344 7.65927 8.47872 10.7167 10.9726" stroke="#00BCD4" stroke-width="3" stroke-miterlimit="10" stroke-linecap="round"/>
<path d="M20.3823 25.6259H13.6521C12.5155 25.6259 11.5903 24.7054 11.5903 23.5641V17.266C11.5903 13.8374 14.784 11.771 17.6254 12.3628" stroke="#00BCD4" stroke-width="3" stroke-miterlimit="10" stroke-linecap="round"/>
<path d="M61.6512 10.6672C61.8766 9.07506 62.1068 7.45007 61.8156 5.87202C61.5291 4.28927 60.632 2.73007 59.1714 2.06316C57.6403 1.36807 55.8556 1.76727 54.2212 2.17587C49.0785 3.47213 43.9357 4.7684 38.793 6.06465C33.9837 7.27637 32.9645 7.53468 27.1267 6.06465C21.9839 4.7684 16.8412 3.47213 11.6984 2.17587C10.064 1.76257 8.28401 1.36337 6.74823 2.06316C5.2829 2.73007 4.39055 4.28927 4.10406 5.87202C3.81757 7.45476 4.04299 9.07976 4.26843 10.6672" stroke="#00BCD4" stroke-width="3" stroke-miterlimit="10" stroke-linecap="round"/>
<path d="M62.4731 40.8522V44.0694C62.4731 45.6287 61.2098 46.8968 59.6458 46.9015C40.7656 46.9578 39.4364 47.4322 29.5078 41.97C20.6407 37.095 13.1262 37.1325 5.10446 37.203C3.3949 37.217 2 35.8363 2 34.1268C2 32.4313 3.37611 31.0552 5.07158 31.0505C17.757 31.0082 22.8105 30.8909 29.8225 35.5452C38.638 41.3924 45.542 40.8569 45.542 40.8569H58.8474V34.0422" stroke="#00BCD4" stroke-width="3" stroke-miterlimit="10" stroke-linecap="round" stroke-linejoin="round"/>
<path d="M62.4731 40.8522V34.0374" stroke="#00BCD4" stroke-width="3" stroke-miterlimit="10" stroke-linecap="round" stroke-linejoin="round"/>
<path d="M55.217 40.8522V34.0374" stroke="#00BCD4" stroke-width="3" stroke-miterlimit="10" stroke-linecap="round" stroke-linejoin="round"/>
<path d="M51.5913 40.8522V34.0374" stroke="#00BCD4" stroke-width="3" stroke-miterlimit="10" stroke-linecap="round" stroke-linejoin="round"/>
<path d="M47.9607 40.8522V34.0374" stroke="#00BCD4" stroke-width="3" stroke-miterlimit="10" stroke-linecap="round" stroke-linejoin="round"/>
<path d="M62.3463 26.3491C61.5667 25.1327 60.1248 24.3671 58.6783 24.4094C57.4525 24.4423 56.344 24.9965 55.2169 25.5272V25.5225C55.0008 25.6212 54.7989 25.7151 54.6157 25.7856C52.4882 26.5887 49.7172 26.2411 47.862 24.926C47.2233 26.2223 47.3125 27.852 48.0922 29.0685C48.8718 30.2849 50.3136 31.0504 51.7602 31.0081C52.986 30.9752 54.0944 30.4211 55.2216 29.8904V29.8951C55.4376 29.7964 55.6396 29.7025 55.8227 29.632C57.9503 28.8289 60.7213 29.1765 62.5764 30.4915C63.2151 29.1953 63.1259 27.5655 62.3463 26.3491Z" fill="#FF5722"/>
</svg>
