<svg width="72" height="68" viewBox="0 0 72 68" fill="none" xmlns="http://www.w3.org/2000/svg">
<g clip-path="url(#clip0)">
<path d="M17.8627 45.3122L17.8628 45.3122C19.7183 45.8737 21.6733 46.8176 23.7413 47.8159C24.5491 48.2059 25.374 48.6041 26.217 48.9912C29.1771 50.3503 32.323 51.549 35.5003 51.549C38.6775 51.549 41.8234 50.3502 44.7835 48.991C45.627 48.6036 46.4525 48.2051 47.2607 47.8148C49.3282 46.8165 51.2827 45.8728 53.1377 45.3111C57.3836 44.0259 61.0429 43.9081 63.6357 44.1097C64.9321 44.2106 65.9614 44.3912 66.6632 44.5455C66.9662 44.6122 67.208 44.6739 67.3837 44.722V63.1316H3.61682V44.722C3.79255 44.6739 4.03434 44.6122 4.33733 44.5456C5.03907 44.3913 6.06837 44.2106 7.36484 44.1099C9.95763 43.9084 13.6168 44.0265 17.8627 45.3122Z" stroke="#00BCD4"/>
<path d="M67.8833 64.7483H3.11672C2.49972 64.7483 2 64.248 2 63.6315V44.3489C2 43.871 2.30425 43.4455 2.75653 43.2914C3.02676 43.2005 9.46095 41.0792 18.3312 43.765C20.3105 44.3635 22.3367 45.3416 24.4818 46.3774C28.1009 48.1255 31.8451 49.9324 35.5 49.9324C39.1565 49.9324 42.9001 48.125 46.5203 46.3763C48.6643 45.3412 50.6905 44.3635 52.6688 43.7638C61.54 41.0776 67.9726 43.2 68.2435 43.2914C68.6962 43.445 69 43.8705 69 44.3489V63.6315C69 64.248 68.5003 64.7483 67.8833 64.7483ZM4.23328 62.515H66.7666V45.2044C64.9062 44.7711 59.7852 43.9437 53.3163 45.9012C51.5039 46.4495 49.5554 47.3909 47.4918 48.3876C43.6444 50.2446 39.6662 52.1658 35.4993 52.1658C31.3325 52.1658 27.3555 50.2463 23.5092 48.3887C21.445 47.3921 19.4954 46.4507 17.6824 45.9024C11.2158 43.9437 6.0959 44.7713 4.23213 45.2044V62.515H4.23328Z" fill="#00BCD4"/>
<path d="M36.0582 59.165C35.6735 59.165 35.3156 58.9667 35.1118 58.6401L32.3201 54.1733C32.209 53.9963 32.1498 53.7909 32.1498 53.5815V24.5482C32.1498 23.9319 32.6495 23.4315 33.2665 23.4315H38.8498C39.4668 23.4315 39.9665 23.9317 39.9665 24.5482V53.5815C39.9665 53.7909 39.9079 53.9959 39.7962 54.1733L37.0045 58.6401C36.8009 58.9662 36.443 59.165 36.0582 59.165ZM34.3832 53.2617L36.0582 55.9417L37.7332 53.2617V25.665H34.3832V53.2617Z" fill="#FF5722"/>
<path d="M33.2666 49.115L38.8499 52.465V50.2316L33.2666 46.8816V49.115Z" fill="#FF5722"/>
<path d="M33.2666 43.5315L38.8499 46.8815V44.6482L33.2666 41.2982V43.5315Z" fill="#FF5722"/>
<path d="M33.2666 37.9482L38.8499 41.2982V39.065L33.2666 35.715V37.9482Z" fill="#FF5722"/>
<path d="M50.0585 20.9654C50.2924 18.7717 50.4159 16.8689 50.4159 15.5351C50.4159 8.79486 47.2769 3.33099 42.52 3.33099C40.2465 3.33099 38.3716 5.52305 36.0993 5.52305C33.8257 5.52305 31.1536 3.33099 28.8801 3.33099C24.1225 3.33148 20.9835 8.79535 20.9835 15.5356C20.9835 22.2747 24.1225 43.5315 28.8794 43.5315C31.6554 43.5315 32.3689 25.8792 36.0986 25.8635C40.5452 25.8792 39.7434 43.5315 42.5194 43.5315C45.5466 43.5315 47.9185 34.9226 49.2434 26.9256" fill="white"/>
<path d="M42.5193 44.6108C40.3675 44.6108 39.8662 41.3478 39.1085 36.41C38.6004 33.1035 37.6546 26.9485 36.0946 26.943C34.964 26.948 33.5659 33.2281 32.9679 35.9098C31.801 41.1492 31.031 44.6108 28.8799 44.6108C22.3781 44.6108 19.9041 19.8481 19.9041 15.535C19.9041 7.8383 23.6795 2.25159 28.8799 2.25159C30.245 2.25159 31.6084 2.85567 32.9267 3.44028C34.04 3.93378 35.1907 4.44365 36.0992 4.44365C36.9675 4.44365 37.8602 3.97239 38.8049 3.47332C39.8874 2.90098 41.1159 2.25175 42.52 2.25175C47.7203 2.25175 51.4958 7.83846 51.4958 15.5351C51.4958 16.9159 50.5444 24.906 50.31 27.1013C50.2469 27.6943 50.0287 25.9188 49.4212 25.8596C48.8282 25.796 48.1159 27.3409 48.1788 26.748C48.4055 24.6263 49.3368 16.8414 49.3368 15.5356C49.3368 9.194 46.4067 4.41142 42.5201 4.41142C41.6507 4.41142 40.7581 4.88317 39.8133 5.3824C38.7308 5.95409 37.5023 6.60348 36.0994 6.60348C34.7342 6.60348 33.3708 5.9994 32.0525 5.41479C30.9386 4.92063 29.7885 4.41093 28.88 4.41093C24.9935 4.41093 22.0634 9.19302 22.0634 15.5351C22.0634 24.3143 25.7144 41.9784 28.7578 42.4423C29.4568 41.7482 30.2989 37.9679 30.8616 35.4401C32.1329 29.7289 33.2311 24.796 36.0948 24.7833C39.5091 24.7951 40.3901 30.5336 41.2421 36.0817C41.5878 38.3323 42.1025 41.6818 42.6698 42.4321C43.9455 42.1138 46.3448 37.8192 48.1788 26.748C48.2771 26.1594 48.8321 25.7647 49.4212 25.8596C50.0091 25.9573 50.4072 26.5129 50.31 27.1013C48.383 38.7205 45.7627 44.6108 42.5193 44.6108Z" fill="#00BCD4"/>
<path d="M24.5327 13.3815C23.9157 13.3815 23.416 12.8813 23.416 12.2648C23.416 8.57033 26.4215 5.56482 30.116 5.56482C30.733 5.56482 31.2327 6.06503 31.2327 6.68154C31.2327 7.29789 30.733 7.79826 30.116 7.79826C27.6526 7.79826 25.6493 9.80205 25.6493 12.265C25.6495 12.8813 25.1502 13.3815 24.5327 13.3815Z" fill="#00BCD4"/>
</g>
<defs>
<clipPath id="clip0">
<rect width="72" height="68" fill="white"/>
</clipPath>
</defs>
</svg>
