<svg width="72" height="68" viewBox="0 0 72 68" fill="none" xmlns="http://www.w3.org/2000/svg">
<g clip-path="url(#clip0)">
<path d="M56.3417 21.2666C54.6349 11.7122 51.8797 4.56372 45.1584 3.98322C41.9391 3.98322 38.7193 7.03323 35.5001 7.03323C32.2809 7.03323 29.061 3.98322 25.8418 3.98322C19.1037 3.98322 14.6584 11.7211 14.6584 21.2666C14.6584 24.2113 15.0814 29.1127 15.8648 34.4833H55.1362C55.6044 31.2711 55.9439 28.2262 56.1411 25.6682" fill="white"/>
<path d="M55.1355 35.4658H15.8645C15.3761 35.4658 14.9622 35.1075 14.8916 34.625C14.1301 29.4023 13.6752 24.4085 13.6752 21.2664C13.6752 10.6825 18.7921 3 25.8417 3C27.6728 3 29.4107 3.82356 31.0918 4.62002C32.6448 5.35557 34.1108 6.05001 35.5 6.05001C36.8892 6.05001 38.3554 5.35557 39.9082 4.62002C41.5893 3.82401 43.3279 3 45.1583 3C52.2075 3 57.121 15.1579 57.121 25.7425C57.121 26.2849 56.76 24.6872 56.2167 24.6872C55.6734 24.6872 55.1614 26.1344 55.1614 25.5915C55.1614 16.1462 51.0689 4.96627 45.1585 4.96627C43.7697 4.96627 42.3031 5.66072 40.7503 6.39626C39.0692 7.19228 37.3312 8.01584 35.5002 8.01584C33.6691 8.01584 31.9312 7.19228 30.2501 6.39582C28.6971 5.66072 27.2306 4.96583 25.8419 4.96583C19.9314 4.96583 15.6416 11.8208 15.6416 21.2661C15.6416 24.152 16.0406 28.6771 16.7167 33.4997H54.2835C54.6738 30.7161 54.9754 27.9985 55.1614 25.5915C55.2031 25.0496 55.6876 24.6496 56.2167 24.6872C56.7576 24.7289 57.1627 25.2016 57.121 25.7425C56.9135 28.4347 56.5628 31.506 56.1084 34.6247C56.0378 35.1075 55.6229 35.4658 55.1355 35.4658Z" fill="#00BCD4"/>
<path d="M35.4999 66C35.2905 66 35.0801 65.9349 34.9021 65.8053L29.3104 61.7386C29.0471 61.5475 28.8914 61.2415 28.8914 60.9167V46.0056L26.0447 42.2099C25.9126 42.0336 25.8414 41.8196 25.8414 41.5999V34.4831C25.8414 33.922 26.2964 33.4664 26.8581 33.4664H44.1415C44.7032 33.4664 45.1582 33.9218 45.1582 34.4831V41.5999C45.1582 41.82 45.0866 42.034 44.9549 42.2099L42.1082 46.0056V60.9165C42.1082 61.2419 41.9521 61.5474 41.6893 61.7384L36.0975 65.8052C35.9197 65.9349 35.7093 66 35.4999 66ZM30.9249 60.3987L35.4999 63.7263L40.0749 60.3987V45.6666C40.0749 45.4465 40.1465 45.2325 40.2782 45.0566L43.1249 41.2609V35.5H27.8749V41.2609L30.7216 45.0566C30.8537 45.2329 30.9249 45.447 30.9249 45.6666V60.3987Z" fill="#FF5722"/>
<path d="M19.7417 17.1998C19.1799 17.1998 18.725 16.7444 18.725 16.1831C18.725 11.1379 22.8292 7.03308 27.875 7.03308C28.4368 7.03308 28.8917 7.4885 28.8917 8.0498C28.8917 8.6111 28.4368 9.06652 27.875 9.06652C23.9511 9.06652 20.7583 12.2589 20.7583 16.1833C20.7583 16.7444 20.3033 17.1998 19.7417 17.1998Z" fill="#00BCD4"/>
<path d="M41.0917 51.7671C40.9763 51.7671 40.8594 51.7473 40.744 51.7056L29.5607 47.6389C29.0335 47.4468 28.7605 46.8637 28.9532 46.3361C29.1449 45.8089 29.7258 45.5354 30.2555 45.7282L41.4389 49.7949C41.9661 49.987 42.2391 50.5701 42.0463 51.0977C41.8968 51.5104 41.5065 51.7671 41.0917 51.7671Z" fill="#FF5722"/>
<path d="M41.0917 56.8504C40.9763 56.8504 40.8594 56.8306 40.744 56.7889L29.5607 52.7222C29.0335 52.5301 28.7605 51.947 28.9532 51.4194C29.1449 50.8917 29.7258 50.6203 30.2555 50.8115L41.4389 54.8782C41.9661 55.0703 42.2391 55.6534 42.0463 56.181C41.8968 56.5938 41.5065 56.8504 41.0917 56.8504Z" fill="#FF5722"/>
<path d="M41.0917 61.9338C40.9763 61.9338 40.8594 61.914 40.744 61.8723L29.5607 57.8056C29.0335 57.6135 28.7605 57.0304 28.9532 56.5028C29.1449 55.9756 29.7258 55.7026 30.2555 55.8948L41.4389 59.9616C41.9661 60.1537 42.2391 60.7367 42.0463 61.2644C41.8968 61.6771 41.5065 61.9338 41.0917 61.9338Z" fill="#FF5722"/>
</g>
<defs>
<clipPath id="clip0">
<rect width="72" height="68" fill="white"/>
</clipPath>
</defs>
</svg>
