<svg width="72" height="68" viewBox="0 0 72 68" fill="none" xmlns="http://www.w3.org/2000/svg">
<g clip-path="url(#clip0)">
<path d="M34.4668 15.1993L29.9922 7.86047" stroke="#00BCD4" stroke-width="3" stroke-miterlimit="10" stroke-linecap="round" stroke-linejoin="round"/>
<path d="M31.1397 17.1243L27.0029 12.9874" stroke="#00BCD4" stroke-width="3" stroke-miterlimit="10" stroke-linecap="round" stroke-linejoin="round"/>
<path d="M37.6133 13.1818L35.8318 7.60596" stroke="#00BCD4" stroke-width="3" stroke-miterlimit="10" stroke-linecap="round" stroke-linejoin="round"/>
<path d="M35.9936 21.7006C34.9386 21.3999 33.828 21.2379 32.6805 21.2379C28.8676 21.2379 25.4712 23.0102 23.2686 25.7773C21.066 23.0102 17.6696 21.2379 13.8567 21.2379C11.2747 21.2379 8.8824 22.0523 6.92506 23.4359C2.8438 26.3233 1.15947 31.5243 2.39958 36.3691C2.8438 38.1043 3.62118 40.2236 4.93533 41.7783C5.63867 42.6066 5.99035 43.6756 5.9487 44.763C5.82839 48.0021 6.305 54.9199 11.6032 61.3148C12.7462 62.6984 14.9765 62.2125 15.4392 60.4819C16.138 57.8628 17.23 54.1888 18.683 50.4083C20.2979 46.2113 26.2301 46.2113 27.845 50.4083C29.3026 54.1888 30.39 57.8628 31.0887 60.4819C31.5514 62.2079 33.7725 62.7029 34.9108 61.3332C40.2276 54.9244 40.7042 47.9929 40.5792 44.7538C40.5376 43.6756 40.8846 42.6113 41.5834 41.7922C42.916 40.2236 43.6934 38.0766 44.1376 36.3321C44.8225 33.6437 44.6003 30.8395 43.5638 28.3917" stroke="#00BCD4" stroke-width="3" stroke-miterlimit="10" stroke-linecap="round"/>
<path d="M23.2688 25.7772C23.2688 25.7772 24.768 27.7067 25.4714 29.6363" stroke="#00BCD4" stroke-width="3" stroke-miterlimit="10" stroke-linecap="round"/>
<path d="M56.3673 16.9808L46.7564 24.19L40.1903 17.6239L47.3996 8.01305C48.9914 6.42127 51.5734 6.42127 53.1652 8.01305L56.3673 11.2152C57.9591 12.807 57.9591 15.3844 56.3673 16.9808Z" stroke="#00BCD4" stroke-width="3" stroke-miterlimit="10" stroke-linecap="round" stroke-linejoin="round"/>
<path d="M40.1488 24.2271L36.8357 27.5403" stroke="#00BCD4" stroke-width="3" stroke-miterlimit="10" stroke-linecap="round" stroke-linejoin="round"/>
<path d="M68.9999 26.7721C64.8261 24.1855 60.9022 21.2009 57.2836 17.8461C56.6913 17.2954 56.3674 16.9808 56.3674 16.9808" stroke="#00BCD4" stroke-width="3" stroke-miterlimit="10" stroke-linecap="round" stroke-linejoin="round"/>
<path d="M49.2367 22.3253L61.6239 34.7171" stroke="#00BCD4" stroke-width="3" stroke-miterlimit="10" stroke-linecap="round" stroke-linejoin="round"/>
<path d="M45.1555 22.5844L42.6244 25.1155C42.1663 25.5736 41.4166 25.5736 40.9585 25.1155L39.2603 23.4173C38.8022 22.9592 38.8022 22.2097 39.2603 21.7516L41.7914 19.2203" stroke="#00BCD4" stroke-width="3" stroke-miterlimit="10" stroke-linecap="round" stroke-linejoin="round"/>
<path d="M36.8358 32.0426C34.351 32.0426 32.3335 30.0298 32.3335 27.5403" stroke="#00BCD4" stroke-width="3" stroke-miterlimit="10" stroke-linecap="round" stroke-linejoin="round"/>
<path d="M13.8566 24.0142C11.9317 24.0142 10.09 24.5972 8.52599 25.7031C5.49049 27.8501 4.10693 31.8574 5.08792 35.6795C5.29152 36.4661 5.53214 37.1834 5.80052 37.822C6.17533 36.4708 6.64268 35.1427 7.31364 33.9119C8.17894 32.3201 9.40517 30.8856 10.9738 29.9879C12.9219 28.8728 15.2448 28.6414 17.4844 28.5951C19.0068 28.5627 20.5338 28.609 22.0561 28.7201L21.0937 27.5078C19.3261 25.2867 16.6885 24.0142 13.8566 24.0142Z" fill="#FF5722"/>
</g>
<defs>
<clipPath id="clip0">
<rect width="72" height="68" fill="white"/>
</clipPath>
</defs>
</svg>
