<svg width="72" height="68" viewBox="0 0 72 68" fill="none" xmlns="http://www.w3.org/2000/svg">
<g clip-path="url(#clip0)">
<path d="M38.2366 23.0446C42.9437 23.2497 47.6314 23.9527 52.2262 25.1539L55.9275 26.1209C57.4656 24.3093 58.3446 21.8189 58.8378 19.8316C60.1757 14.4408 58.2323 8.6838 53.7009 5.4757C51.4938 3.91803 48.8033 3 45.8979 3C41.6107 3 37.7873 4.99712 35.3068 8.11245C32.8262 4.99712 29.0077 3 24.7156 3C21.8103 3 19.1197 3.91803 16.9126 5.4757C12.3861 8.67892 10.4378 14.4261 11.766 19.812C12.2592 21.8043 13.1381 24.2995 14.6762 26.116L18.3824 25.1492C22.9773 23.9528 27.6698 23.2497 32.377 23.0446" stroke="#00BCD4" stroke-width="3" stroke-miterlimit="10" stroke-linecap="round"/>
<path d="M35.3068 8.10754C35.3068 8.10754 36.9963 10.2805 37.7873 12.4486" stroke="#00BCD4" stroke-width="3" stroke-miterlimit="10" stroke-linecap="round"/>
<path d="M38.5441 33.8018C39.8772 34.5733 40.9808 35.6328 42.0062 36.2773C43.9105 37.4737 46.3764 37.4639 48.6812 37.7373C51.8991 38.1182 54.3064 40.8771 54.3064 44.1145V45.9358C54.4431 49.4906 53.9206 57.1032 48.0757 64.1395C46.8257 65.6386 44.3939 65.0869 43.891 63.1972C43.1195 60.326 41.928 56.2926 40.3313 52.1421C38.5539 47.5228 32.0547 47.5228 30.2773 52.1421C28.6806 56.2926 27.4842 60.326 26.7176 63.1972C26.2147 65.082 23.7781 65.6386 22.5329 64.1395C16.6978 57.113 16.1704 49.5102 16.3023 45.9505L16.2974 44.139C16.2876 40.8918 18.6998 38.1182 21.9225 37.7422C24.2322 37.4737 26.703 37.4785 28.6024 36.2822C29.6279 35.6377 30.7314 34.5782 32.0645 33.8066" stroke="#00BCD4" stroke-width="3" stroke-miterlimit="10" stroke-linecap="round"/>
<path d="M35.3068 18.0883V36.4825" stroke="#00BCD4" stroke-width="3" stroke-miterlimit="10" stroke-linecap="round"/>
<path d="M37.8166 38.2305L35.2774 40.7746L32.792 38.294" stroke="#00BCD4" stroke-width="3" stroke-miterlimit="10" stroke-linecap="round"/>
<path d="M18.6071 7.86345C15.1597 10.3 13.5581 14.8168 14.6129 19.104C14.9644 20.5201 15.4137 21.7506 15.9459 22.7516L17.6452 22.3073C18.822 21.9997 20.0134 21.7262 21.2049 21.4772C20.1111 17.7613 20.9705 13.5228 23.4266 10.5246C24.8182 8.82537 26.5956 7.59489 28.5635 6.6476C27.3525 6.17883 26.0536 5.92493 24.7108 5.92493C22.5135 5.92493 20.3992 6.59388 18.6071 7.86345Z" fill="#FF5722"/>
</g>
<defs>
<clipPath id="clip0">
<rect width="72" height="68" fill="white"/>
</clipPath>
</defs>
</svg>
