<svg width="72" height="68" viewBox="0 0 72 68" fill="none" xmlns="http://www.w3.org/2000/svg">
<g clip-path="url(#clip0)">
<path d="M35.5082 53.7955C32.2017 57.9834 25.4354 55.531 25.4354 50.199V43.0002C25.4354 41.6973 26.492 40.6462 27.7894 40.6462H35.4808V53.7955" stroke="#00BCD4" stroke-width="3" stroke-miterlimit="10" stroke-linecap="round"/>
<path d="M35.6069 53.7955C38.9134 57.9834 45.6796 55.531 45.6796 50.199V43.0002C45.6796 41.6973 44.6231 40.6462 43.3257 40.6462H35.6343" stroke="#00BCD4" stroke-width="3" stroke-miterlimit="10" stroke-linecap="round"/>
<path d="M45.6794 51.677C48.9859 55.8649 55.7522 53.4123 55.7522 48.0803V40.6791C55.7522 39.4912 54.7887 38.5277 53.6007 38.5277H47.8582" stroke="#00BCD4" stroke-width="3" stroke-miterlimit="10" stroke-linecap="round"/>
<path d="M55.7522 48.8905C59.0587 53.0784 65.8249 50.6258 65.8249 45.2938V37.8926C65.8249 36.7047 64.8614 35.7412 63.6735 35.7412H57.931" stroke="#00BCD4" stroke-width="3" stroke-miterlimit="10" stroke-linecap="round"/>
<path d="M25.4354 51.677C22.1289 55.8649 15.3627 53.4123 15.3627 48.0803V40.6791C15.3627 39.4912 16.3261 38.5277 17.5141 38.5277H23.2566" stroke="#00BCD4" stroke-width="3" stroke-miterlimit="10" stroke-linecap="round"/>
<path d="M15.3629 48.8905C12.0564 53.0784 5.29016 50.6258 5.29016 45.2938V37.8926C5.29016 36.7047 6.25364 35.7412 7.44156 35.7412H13.1841" stroke="#00BCD4" stroke-width="3" stroke-miterlimit="10" stroke-linecap="round"/>
<path d="M40.0027 14.5503L37.8403 17.6925C36.3568 19.8439 35.5685 22.395 35.5685 25.0063V29.0572C35.5685 30.4094 36.6633 31.5042 38.0155 31.5042H46.8948C48.2469 31.5042 49.3419 30.4094 49.3419 29.0572V17.4572C49.3419 14.6324 47.0481 12.3386 44.2233 12.3386C42.5372 12.3332 40.9607 13.1653 40.0027 14.5503Z" stroke="#00BCD4" stroke-width="3" stroke-miterlimit="10" stroke-linecap="round"/>
<path d="M35.5683 29.0517C35.5683 30.4038 34.4734 31.4987 33.1213 31.4987H24.242C22.8898 31.4987 21.7949 30.4038 21.7949 29.0517V17.4517C21.7949 14.6269 24.0887 12.3331 26.9134 12.3331C28.5995 12.3331 30.1761 13.1598 31.1286 14.5503L33.291 17.6925C34.3311 19.2089 35.2398 21.8858 35.5628 23.6759" stroke="#00BCD4" stroke-width="3" stroke-miterlimit="10" stroke-linecap="round"/>
<path d="M49.3363 28.9531H56.8142C58.0787 28.9531 59.1024 27.9294 59.1024 26.6649V19.6687C59.1024 15.8038 55.4456 13.4936 52.2541 14.2545" stroke="#00BCD4" stroke-width="3" stroke-miterlimit="10" stroke-linecap="round"/>
<path d="M59.2339 26.3474H66.7118C67.9764 26.3474 69 25.3238 69 24.0592V17.063C69 12.1362 63.0659 9.73832 59.7156 13.001" stroke="#00BCD4" stroke-width="3" stroke-miterlimit="10" stroke-linecap="round"/>
<path d="M11.7661 26.3474H4.28826C3.02369 26.3474 2 25.3238 2 24.0592V17.063C2 12.3059 7.52905 9.90813 10.9286 12.6836" stroke="#00BCD4" stroke-width="3" stroke-miterlimit="10" stroke-linecap="round"/>
<path d="M21.6637 28.9532H14.1858C12.9213 28.9532 11.8976 27.9295 11.8976 26.665V19.6688C11.8976 15.8587 15.4449 13.5648 18.6036 14.2217" stroke="#00BCD4" stroke-width="3" stroke-miterlimit="10" stroke-linecap="round"/>
<path d="M67.5056 12.3331C67.7574 10.5649 68.0092 8.76386 67.6917 7.00661C67.3742 5.24936 66.3779 3.51949 64.752 2.78046C63.0495 2.00858 61.0679 2.45199 59.2559 2.90636C53.5407 4.3461 47.831 5.78592 42.1158 7.22566C36.7729 8.57234 35.6397 8.86248 29.1526 7.22566C23.4375 5.78592 17.7278 4.3461 12.0126 2.90636C10.2006 2.45199 8.21889 2.00311 6.51638 2.78046C4.89052 3.51949 3.89419 5.25483 3.57668 7.00661C3.25917 8.76386 3.51097 10.5649 3.76279 12.3331" stroke="#00BCD4" stroke-width="3" stroke-miterlimit="10" stroke-linecap="round"/>
<path d="M65.8523 44.2046C67.1552 45.8031 67.8614 47.533 67.8614 49.3341C67.8614 57.4799 53.371 64.0873 35.5028 64.0873C17.6347 64.0873 3.14417 57.4799 3.14417 49.3341C3.14417 47.4783 3.89415 45.6991 5.2682 44.0623" stroke="#00BCD4" stroke-width="3" stroke-miterlimit="10" stroke-linecap="round"/>
<path d="M44.2178 15.6177C43.6157 15.6177 43.0518 15.9133 42.707 16.4114L40.5446 19.5537C39.9643 20.3967 39.5319 21.3165 39.2472 22.28C40.6158 22.269 41.9844 22.4605 43.2982 22.8547C44.2562 23.1448 45.1814 23.55 46.0518 24.0427V17.4461C46.0518 16.4443 45.2306 15.6177 44.2178 15.6177Z" fill="#FF5722"/>
<path d="M27.1106 15.6177C27.7128 15.6177 28.2766 15.9133 28.6215 16.4114L30.7839 19.5537C31.3642 20.3967 31.7966 21.3165 32.0813 22.28C30.7127 22.269 29.3441 22.4605 28.0303 22.8547C27.0723 23.1448 26.1471 23.55 25.2767 24.0427V17.4461C25.2767 16.4443 26.1033 15.6177 27.1106 15.6177Z" fill="#FF5722"/>
</g>
<defs>
<clipPath id="clip0">
<rect width="72" height="68" fill="white"/>
</clipPath>
</defs>
</svg>
