<svg width="63" height="61" viewBox="0 0 63 61" fill="none" xmlns="http://www.w3.org/2000/svg">
<path d="M31.1548 16.17L26.1287 11.1439" stroke="#00BCD4" stroke-width="3" stroke-miterlimit="10" stroke-linecap="round" stroke-linejoin="round"/>
<path d="M33.3566 13.875L30.8391 9.73846" stroke="#00BCD4" stroke-width="3" stroke-miterlimit="10" stroke-linecap="round" stroke-linejoin="round"/>
<path d="M28.9222 18.3095L24.7856 15.7876" stroke="#00BCD4" stroke-width="3" stroke-miterlimit="10" stroke-linecap="round" stroke-linejoin="round"/>
<path d="M46.4911 31.5063L51.5171 36.5324" stroke="#00BCD4" stroke-width="3" stroke-miterlimit="10" stroke-linecap="round" stroke-linejoin="round"/>
<path d="M48.7863 29.3091L52.9227 31.8265" stroke="#00BCD4" stroke-width="3" stroke-miterlimit="10" stroke-linecap="round" stroke-linejoin="round"/>
<path d="M44.356 33.7391L46.8735 37.8756" stroke="#00BCD4" stroke-width="3" stroke-miterlimit="10" stroke-linecap="round" stroke-linejoin="round"/>
<path d="M28.7352 22.8685C25.4127 22.8685 22.4549 24.4163 20.5334 26.827C18.6164 24.4163 15.6541 22.8685 12.3315 22.8685C10.0809 22.8685 7.99935 23.5757 6.29137 24.7855C2.73309 27.303 1.2653 31.8353 2.35058 36.0563C2.73754 37.5686 3.4136 39.4145 4.56115 40.7711C5.17495 41.4916 5.4774 42.4256 5.44182 43.3686C5.33507 46.1885 5.7532 52.2199 10.3701 57.793C11.3664 58.9984 13.3101 58.5758 13.7148 57.068C14.3242 54.7862 15.2716 51.5838 16.5436 48.2924C17.9536 44.6318 23.1176 44.6318 24.5276 48.2924C25.7952 51.5882 26.7471 54.7907 27.3564 57.0724C27.7567 58.5758 29.696 59.0118 30.6878 57.8153C35.3225 52.2332 35.7362 46.1885 35.6294 43.3686C35.5938 42.4301 35.8963 41.505 36.5056 40.7844C37.6665 39.419 38.3426 37.5464 38.7296 36.0253" stroke="#00BCD4" stroke-width="3" stroke-miterlimit="10" stroke-linecap="round" stroke-linejoin="round"/>
<path d="M20.5334 26.827C20.5334 26.827 21.8411 28.5083 22.4549 30.1896" stroke="#00BCD4" stroke-width="3" stroke-miterlimit="10" stroke-linecap="round" stroke-linejoin="round"/>
<path d="M44.5608 13.0833L49.9071 18.4296C50.5742 19.0968 50.5742 20.1731 49.9071 20.8403L44.9789 25.7686C44.3117 26.4357 43.2353 26.4357 42.5681 25.7686L37.2218 20.4222C36.5546 19.7551 36.5546 18.6787 37.2218 18.0115L42.15 13.0833C42.8172 12.4161 43.8981 12.4161 44.5608 13.0833Z" stroke="#00BCD4" stroke-width="3" stroke-miterlimit="10" stroke-linecap="round" stroke-linejoin="round"/>
<path d="M45.5081 14.0261L57.5395 1.99475L60.9999 5.45064L48.964 17.4866" stroke="#00BCD4" stroke-width="3" stroke-miterlimit="10" stroke-linecap="round" stroke-linejoin="round"/>
<path d="M28.197 27.0406L37.2261 20.4222" stroke="#00BCD4" stroke-width="3" stroke-miterlimit="10" stroke-linecap="round" stroke-linejoin="round"/>
<path d="M42.5728 25.7686L35.9543 34.7977" stroke="#00BCD4" stroke-width="3" stroke-miterlimit="10" stroke-linecap="round" stroke-linejoin="round"/>
<path d="M31.8 31.1905L35.4429 27.5477" stroke="#00BCD4" stroke-width="3" stroke-miterlimit="10" stroke-linecap="round" stroke-linejoin="round"/>
<path d="M29.7363 29.0911L33.864 26.0132" stroke="#00BCD4" stroke-width="3" stroke-miterlimit="10" stroke-linecap="round" stroke-linejoin="round"/>
<path d="M33.9081 33.2631L36.9905 29.1355" stroke="#00BCD4" stroke-width="3" stroke-miterlimit="10" stroke-linecap="round" stroke-linejoin="round"/>
<path d="M12.3316 25.5372C10.7081 25.5372 9.15134 26.0309 7.83033 26.965C5.26836 28.7753 4.10302 32.1645 4.93032 35.3892C4.95701 35.487 4.98372 35.585 5.0104 35.6828C5.54859 34.7488 6.1891 33.877 6.96747 33.1253C9.28925 30.8969 12.6073 29.9451 15.8231 29.8783C17.1441 29.8517 18.4563 29.9628 19.764 30.1496L18.4385 28.4861C16.9529 26.6136 14.7245 25.5372 12.3316 25.5372Z" fill="#FF5722"/>
</svg>
