<svg width="61" height="66" viewBox="0 0 61 66" fill="none" xmlns="http://www.w3.org/2000/svg">
<path d="M47.4213 15.6075V8.39484C47.4213 4.9372 44.6207 2.13654 41.163 2.13654C39.1057 2.13654 37.1779 3.14848 36.0077 4.84613L33.3606 8.68742C31.5478 11.3202 30.5791 14.4373 30.5791 17.6312V22.5803C30.5791 24.2348 31.9171 25.5728 33.5716 25.5728" stroke="#00BCD4" stroke-width="3" stroke-miterlimit="10" stroke-linecap="round"/>
<path d="M46.4814 41.921H48.7354C50.3899 41.921 51.7278 40.583 51.7278 38.9285V24.7432C51.7278 21.2855 48.9272 18.4849 45.4695 18.4849C43.4122 18.4849 41.4844 19.4967 40.3143 21.1943L37.6671 25.0356C35.8543 27.6684 34.8856 30.7856 34.8856 33.9795V38.9285C34.8856 40.583 36.2236 41.921 37.8781 41.921H40.2135" stroke="#00BCD4" stroke-width="3" stroke-miterlimit="10" stroke-linecap="round"/>
<path d="M30.579 22.5803C30.579 24.2348 29.241 25.5728 27.5866 25.5728H16.7293C15.0748 25.5728 13.7368 24.2348 13.7368 22.5803V8.39484C13.7368 4.9372 16.5375 2.13654 19.9951 2.13654C22.0524 2.13654 23.9802 3.14848 25.1504 4.84613L27.7976 8.68742C29.0732 10.5385 30.181 13.8139 30.579 16.0055" stroke="#00BCD4" stroke-width="3" stroke-miterlimit="10" stroke-linecap="round"/>
<path d="M50.9893 4.48166C54.8929 3.55131 59.3624 6.37104 59.3624 11.0995V19.6549C59.3624 21.1991 58.1107 22.4556 56.5618 22.4556H54.3174" stroke="#00BCD4" stroke-width="3" stroke-miterlimit="10" stroke-linecap="round"/>
<path d="M13.5788 22.4556H4.43832C2.89413 22.4556 1.6377 21.2039 1.6377 19.6549V11.0995C1.6377 6.44291 5.97292 3.63273 9.83339 4.4384" stroke="#00BCD4" stroke-width="3" stroke-miterlimit="10" stroke-linecap="round"/>
<path d="M38.4296 47.2777L43.5369 42.1703V35.6147" stroke="#00BCD4" stroke-width="3" stroke-miterlimit="10" stroke-linecap="round" stroke-linejoin="round"/>
<path d="M38.3914 53.5455L28.7714 63.1656C27.6588 64.2781 25.8556 64.2781 24.7382 63.1656L22.5371 60.9644C21.4245 59.8519 21.4245 58.0486 22.5371 56.9313L32.1571 47.3112" stroke="#00BCD4" stroke-width="3" stroke-miterlimit="10" stroke-linecap="round" stroke-linejoin="round"/>
<path d="M38.3577 53.584L40.1704 49.0185L38.4296 47.2778L36.6888 45.5369L32.1234 47.3497L35.2406 50.4668" stroke="#00BCD4" stroke-width="3" stroke-miterlimit="10" stroke-linecap="round" stroke-linejoin="round"/>
<path d="M45.4696 21.3622C44.357 21.3622 43.3164 21.9089 42.6833 22.8249L40.0362 26.6662C38.7126 28.5844 37.9501 30.7952 37.7966 33.1066C39.2737 32.1044 40.7603 31.1165 42.434 30.5075C44.4769 29.7641 46.6829 29.6346 48.8505 29.8936V24.7383C48.8505 22.8776 47.3351 21.3622 45.4696 21.3622Z" fill="#FF5722"/>
</svg>
