<svg width="56" height="68" viewBox="0 0 56 68" fill="none" xmlns="http://www.w3.org/2000/svg">
<path d="M31.4322 29.3408H32.6814C33.8214 29.3408 34.8688 28.7406 35.447 27.7642C37.2144 24.7967 40.6183 17.7817 40.4928 7.95193C40.4274 2.79155 35.5452 -1.13603 30.5866 0.298617C30.4175 0.347712 30.243 0.40216 30.0684 0.467619C28.361 1.08403 26.5282 1.08403 24.8262 0.467619C24.6517 0.407615 24.4825 0.347712 24.308 0.298617C19.3494 -1.13603 14.4673 2.79155 14.4018 7.95193C14.2763 17.7763 17.6802 24.7913 19.4476 27.7642C20.0313 28.7406 21.0787 29.3408 22.2133 29.3408H23.4625" stroke="#00BCD4" stroke-width="3" stroke-miterlimit="10" stroke-linecap="round"/>
<path d="M27.4556 24.4477V36.634" stroke="#00BCD4" stroke-width="3" stroke-miterlimit="10" stroke-linecap="round"/>
<path d="M34.4594 40.3269V36.3666C34.4594 35.5975 33.8375 34.9756 33.0684 34.9756H31.4319" stroke="#00BCD4" stroke-width="3" stroke-miterlimit="10" stroke-linecap="round"/>
<path d="M20.4458 58.3228V59.4466C20.4458 60.4721 20.7785 61.454 21.3731 62.1795L25.2134 66.8708C26.4462 68.3764 28.4591 68.3764 29.6919 66.8708L33.5322 62.1795C34.1268 61.454 34.4596 60.4721 34.4596 59.4466V52.1042" stroke="#00BCD4" stroke-width="3" stroke-miterlimit="10" stroke-linecap="round"/>
<path d="M23.2224 34.9811H21.8314C21.0623 34.9811 20.4404 35.603 20.4404 36.3721V46.5511" stroke="#00BCD4" stroke-width="3" stroke-miterlimit="10" stroke-linecap="round"/>
<path d="M17.6095 47.8056L37.2964 39.0723" stroke="#00BCD4" stroke-width="3" stroke-miterlimit="10" stroke-linecap="round"/>
<path d="M17.6094 53.6916L37.2963 44.9582" stroke="#00BCD4" stroke-width="3" stroke-miterlimit="10" stroke-linecap="round"/>
<path d="M17.6094 59.5829L37.2963 50.8441" stroke="#00BCD4" stroke-width="3" stroke-miterlimit="10" stroke-linecap="round"/>
<path d="M27.4554 24.4477C30.1548 24.4477 32.343 22.2593 32.343 19.5599C32.343 16.8605 30.1548 14.6723 27.4554 14.6723C24.756 14.6723 22.5677 16.8605 22.5677 19.5599C22.5677 22.2593 24.756 24.4477 27.4554 24.4477Z" stroke="#00BCD4" stroke-width="3" stroke-miterlimit="10" stroke-linecap="round"/>
<path d="M40.4983 34.9811C47.7697 34.9811 53.6611 40.8725 53.6611 48.1439V67.9999" stroke="#00BCD4" stroke-width="3" stroke-miterlimit="10" stroke-linecap="round"/>
<path d="M15.04 34.9811C7.76855 34.9811 1.8772 40.8725 1.8772 48.1439V67.9999" stroke="#00BCD4" stroke-width="3" stroke-miterlimit="10" stroke-linecap="round"/>
<path d="M35.2614 4.15515C34.765 3.78967 33.8595 3.27151 32.6812 3.27151C32.3103 3.27151 31.9175 3.32064 31.4975 3.44065C31.3884 3.47338 31.2848 3.50608 31.1811 3.54426C29.9756 3.98066 28.7155 4.19883 27.4499 4.19883C26.1844 4.19883 24.9188 3.98066 23.7133 3.54426C23.6151 3.50608 23.5115 3.47339 23.4133 3.44611C22.9932 3.3261 22.5896 3.27151 22.2186 3.27151C21.0349 3.27151 20.1348 3.78421 19.6384 4.15515C18.4274 5.04976 17.6965 6.48443 17.6801 7.99545C17.6528 10.2102 17.8219 12.2612 18.1165 14.1487C20.4403 11.6394 23.7624 10.0684 27.4499 10.0684C31.1375 10.0684 34.4595 11.6394 36.7834 14.1487C37.0779 12.2667 37.247 10.2102 37.2197 7.99545C37.2033 6.48443 36.4724 5.04976 35.2614 4.15515Z" fill="#FF5722"/>
</svg>
