<svg width="63" height="54" viewBox="0 0 63 54" fill="none" xmlns="http://www.w3.org/2000/svg">
<path d="M6.05816 13.0788C6.00406 13.7155 6.47849 14.2773 7.1152 14.3314H7.13593C7.77264 14.3855 8.33435 13.9111 8.38845 13.2744" stroke="#00BCD4" stroke-width="3" stroke-miterlimit="10" stroke-linecap="round" stroke-linejoin="round"/>
<path d="M14.7389 10.9897L14.7099 10.7483C14.6516 10.2239 15.0262 9.75368 15.5505 9.69542C16.0665 9.63716 16.5324 9.99922 16.599 10.5111L16.62 10.6609C19.6579 10.2739 21.776 12.4004 20.5608 16.075C18.7589 21.5141 15.8583 28.6844 11.4554 28.6844C7.05256 28.6844 4.15204 21.5141 2.3501 16.075C1.13078 12.4004 3.25324 10.2697 6.29114 10.6609L6.31187 10.5111C6.38262 9.99922 6.84871 9.63716 7.36058 9.69542C7.88493 9.75368 8.25948 10.2281 8.20121 10.7483L8.17195 10.9897" stroke="#00BCD4" stroke-width="3" stroke-miterlimit="10" stroke-linecap="round" stroke-linejoin="round"/>
<path d="M16.8488 13.0788C16.9029 13.7155 16.4285 14.2773 15.7918 14.3314H15.771C15.1343 14.3855 14.5724 13.9111 14.5183 13.2744" stroke="#00BCD4" stroke-width="3" stroke-miterlimit="10" stroke-linecap="round" stroke-linejoin="round"/>
<path d="M11.4514 28.6886V40.2118C11.4514 42.8919 9.27906 45.0642 6.59905 45.0642C4.45587 45.0642 2.57899 43.3788 2.71632 41.1815C2.84117 39.2339 4.11457 38.2143 5.8208 38.077C5.8208 38.077 7.98891 37.8689 9.21239 39.8165" stroke="#00BCD4" stroke-width="3" stroke-miterlimit="10" stroke-linecap="round" stroke-linejoin="round"/>
<path d="M31.4683 40.2243C31.1104 39.7083 30.8233 39.1423 30.6277 38.543C30.0908 36.8826 30.382 35.5551 30.8855 34.5855C31.6637 33.0832 33.1828 32.0844 34.8766 31.9762C38.0518 31.7681 39.4416 34.9766 39.4416 34.9766C39.4416 34.9766 40.8317 31.7681 44.0069 31.9762C45.6965 32.0886 47.2154 33.0832 47.9977 34.5855C48.5013 35.5551 48.7926 36.8826 48.2558 38.543C48.0602 39.1423 47.7731 39.7083 47.4152 40.2243C47.2778 40.4241 47.1281 40.6155 46.97 40.8028C46.2708 41.6142 44.9432 42.921 43.6115 44.0404C43.6115 44.0404 42.309 45.1807 41.3893 46.0587L39.4416 47.7691L37.4982 46.0587C36.5785 45.1848 35.2718 44.0404 35.2718 44.0404" stroke="#00BCD4" stroke-width="3" stroke-miterlimit="10" stroke-linecap="round" stroke-linejoin="round"/>
<path d="M51.6184 12.0426C51.6184 12.0426 52.4672 11.6014 53.3245 10.7483C56.2334 7.85608 54.6063 2.74574 50.5488 2.14649C48.8176 1.89263 46.7703 2.53349 45.0391 5.71705" stroke="#00BCD4" stroke-width="3" stroke-miterlimit="10" stroke-linecap="round" stroke-linejoin="round"/>
<path d="M26.6197 12.0426C26.6197 12.0426 25.771 11.6014 24.9137 10.7483C22.0048 7.85608 23.6319 2.74574 27.6894 2.14649C29.4206 1.89263 31.4679 2.53349 33.1991 5.71705" stroke="#00BCD4" stroke-width="3" stroke-miterlimit="10" stroke-linecap="round" stroke-linejoin="round"/>
<path d="M53.2495 35.1347C52.6752 31.4352 51.2312 27.8063 48.1143 25.4842" stroke="#00BCD4" stroke-width="3" stroke-miterlimit="10" stroke-linecap="round" stroke-linejoin="round"/>
<path d="M32.8372 50.1995C37.1027 50.9652 41.4681 50.9611 45.7295 50.187" stroke="#00BCD4" stroke-width="3" stroke-miterlimit="10" stroke-linecap="round" stroke-linejoin="round"/>
<path d="M30.3904 25.4842C27.2734 27.8063 25.8294 31.4352 25.2551 35.1347" stroke="#00BCD4" stroke-width="3" stroke-miterlimit="10" stroke-linecap="round" stroke-linejoin="round"/>
<path d="M20.2323 36.3208C19.1211 35.5094 18.4135 34.1652 18.3137 32.7836C18.2013 31.2022 18.8464 29.6125 19.9242 28.4556C20.1906 28.1684 20.4819 27.9062 20.7898 27.669C22.2797 26.5288 24.1606 26.0336 26.0291 26.1501C27.0529 26.2125 28.2182 26.379 28.9548 26.766" stroke="#00BCD4" stroke-width="3" stroke-miterlimit="10" stroke-linecap="round" stroke-linejoin="round"/>
<path d="M58.4848 36.4332C59.6917 35.6383 60.4615 34.2318 60.5613 32.7836C60.6737 31.2022 60.0286 29.6125 58.9508 28.4556C58.6844 28.1684 58.3933 27.9062 58.0854 27.669C56.5955 26.5288 54.7144 26.0336 52.8459 26.1501C51.8221 26.2125 50.657 26.379 49.9204 26.766" stroke="#00BCD4" stroke-width="3" stroke-miterlimit="10" stroke-linecap="round" stroke-linejoin="round"/>
<path d="M21.1643 45.0975C19.9116 40.9609 21.3098 36.7952 24.5142 35.5135C25.5379 35.1057 26.6325 35.0349 27.7103 35.2597" stroke="#00BCD4" stroke-width="3" stroke-miterlimit="10" stroke-linecap="round" stroke-linejoin="round"/>
<path d="M34.531 46.8079C34.0774 48.9885 32.8122 50.7613 30.9104 51.5228C28.6091 52.4425 25.9583 51.6435 23.9275 49.6876" stroke="#00BCD4" stroke-width="3" stroke-miterlimit="10" stroke-linecap="round" stroke-linejoin="round"/>
<path d="M44.0859 46.9577C44.5645 49.0718 45.8172 50.778 47.6732 51.5229C51.1148 52.8962 55.3345 50.4284 57.099 46.0089C58.8635 41.5893 57.5068 36.891 54.0652 35.5177C52.9791 35.0849 51.818 35.0308 50.6777 35.3055" stroke="#00BCD4" stroke-width="3" stroke-miterlimit="10" stroke-linecap="round" stroke-linejoin="round"/>
<path d="M43.9777 15.0514C43.9777 15.2386 43.8281 15.3885 43.6408 15.3885C43.4535 15.3885 43.3037 15.2386 43.3037 15.0514C43.3037 14.8641 43.4535 14.7143 43.6408 14.7143C43.8239 14.7143 43.9777 14.8641 43.9777 15.0514Z" stroke="#00BCD4" stroke-width="3" stroke-miterlimit="10" stroke-linecap="round" stroke-linejoin="round"/>
<path d="M35.2052 15.0514C35.2052 15.2386 35.0554 15.3885 34.8681 15.3885C34.6808 15.3885 34.531 15.2386 34.531 15.0514C34.531 14.8641 34.6808 14.7143 34.8681 14.7143C35.0554 14.7143 35.2052 14.8641 35.2052 15.0514Z" stroke="#00BCD4" stroke-width="3" stroke-miterlimit="10" stroke-linecap="round" stroke-linejoin="round"/>
<path d="M39.2877 28.0644C46.3229 28.0644 52.0262 22.7916 52.0262 16.2873C52.0262 9.78303 46.3229 4.51025 39.2877 4.51025C32.2524 4.51025 26.5493 9.78303 26.5493 16.2873C26.5493 22.7916 32.2524 28.0644 39.2877 28.0644Z" stroke="#00BCD4" stroke-width="3" stroke-miterlimit="10" stroke-linecap="round" stroke-linejoin="round"/>
<path d="M39.2876 21.7347V23.5408" stroke="#00BCD4" stroke-width="3" stroke-miterlimit="10" stroke-linecap="round" stroke-linejoin="round"/>
<path d="M34.1606 22.1675C34.1606 22.1675 35.7752 24.9973 39.2876 23.5449" stroke="#00BCD4" stroke-width="3" stroke-miterlimit="10" stroke-linecap="round" stroke-linejoin="round"/>
<path d="M44.4106 22.1675C44.4106 22.1675 42.796 24.9973 39.2837 23.5449" stroke="#00BCD4" stroke-width="3" stroke-miterlimit="10" stroke-linecap="round" stroke-linejoin="round"/>
<path d="M41 19C41 19.5536 40.3279 20 39.5 20C38.6721 20 38 19.551 38 19C38 18.4464 38.6721 18 39.5 18C40.3279 18 41 18.449 41 19Z" stroke="#00BCD4" stroke-width="3" stroke-miterlimit="10" stroke-linecap="round" stroke-linejoin="round"/>
<path d="M11.0186 42.1927C12.4251 43.5036 13.8441 44.8187 15.4713 45.8466C17.0984 46.8703 18.9629 47.5986 20.8855 47.6027C23.0287 47.6069 25.0679 46.7288 26.9947 45.7883C30.3863 44.132 33.6654 42.2344 36.7907 40.1161" stroke="#00BCD4" stroke-width="3" stroke-miterlimit="10" stroke-linecap="round" stroke-linejoin="round"/>
<path d="M34.6519 39.3462C34.9931 38.3973 35.9459 37.7565 36.9988 37.8564C38.2473 37.9687 39.1713 39.0757 39.0548 40.3283C38.9424 41.5768 37.8353 42.5006 36.5827 42.3841" stroke="#00BCD4" stroke-width="3" stroke-miterlimit="10" stroke-linecap="round" stroke-linejoin="round"/>
<path d="M49.6706 49.4046C50.5321 49.4046 51.3021 49.0467 51.7557 48.7804C53.0416 48.0313 54.1443 46.683 54.7852 45.0808C56.017 42.0013 55.2638 38.6804 53.1456 37.8356C53.0457 37.794 52.9416 37.7607 52.8334 37.7357C52.8542 38.4265 52.8541 39.1215 52.8125 39.8123C52.6918 41.9139 52.23 44.0321 51.1688 45.8507C50.4281 47.1158 49.3752 48.2186 48.1184 48.9552C48.2682 49.0509 48.4264 49.1341 48.6012 49.2049C48.9633 49.3463 49.3211 49.4046 49.6706 49.4046Z" fill="#FF5722"/>
</svg>
