<svg width="66" height="68" viewBox="0 0 66 68" fill="none" xmlns="http://www.w3.org/2000/svg">
<path d="M40.5553 22.9263L42.8459 13.5968" stroke="#00BCD4" stroke-width="3" stroke-miterlimit="10" stroke-linecap="round" stroke-linejoin="round"/>
<path d="M36.4069 21.8105L36.4216 15.268" stroke="#00BCD4" stroke-width="3" stroke-miterlimit="10" stroke-linecap="round" stroke-linejoin="round"/>
<path d="M44.6301 23.8309L47.6482 18.0257" stroke="#00BCD4" stroke-width="3" stroke-miterlimit="10" stroke-linecap="round" stroke-linejoin="round"/>
<path d="M13.2991 20.7733L2.47524 9.94942C1.2218 8.69598 1.2218 6.66591 2.47524 5.41738L4.95265 2.94008C6.2061 1.68664 8.23617 1.68664 9.4847 2.94008L20.3086 13.7638" stroke="#00BCD4" stroke-width="3" stroke-miterlimit="10" stroke-linecap="round" stroke-linejoin="round"/>
<path d="M37.5225 40.8531L38.5203 31.8233C38.6677 30.506 38.2057 29.1985 37.2718 28.2645C36.4558 27.4486 35.3449 26.9866 34.1898 26.9866H26.4774L20.3232 20.8324" stroke="#00BCD4" stroke-width="3" stroke-miterlimit="10" stroke-linecap="round" stroke-linejoin="round"/>
<path d="M13.2549 20.7292L18.3915 22.774L20.3479 20.8127L22.3092 18.8564L20.2643 13.7197L16.7596 17.2244" stroke="#00BCD4" stroke-width="3" stroke-miterlimit="10" stroke-linecap="round" stroke-linejoin="round"/>
<path d="M29.1118 29.6507C25.2729 32.364 23.6901 37.2549 24.86 41.8066C25.2778 43.4386 26.0053 45.4294 27.244 46.8893C27.9026 47.6708 28.232 48.6736 28.1927 49.6911C28.0796 52.7337 28.5269 59.237 33.5112 65.2437C34.5877 66.5413 36.6817 66.0891 37.1192 64.4571C37.7778 61.9945 38.8003 58.5438 40.1668 54.9899C41.6856 51.0428 47.2598 51.0428 48.7786 54.9899C50.1501 58.5438 51.1725 61.9945 51.8312 64.4571C52.2637 66.0792 54.3528 66.5462 55.4244 65.2583C60.4234 59.2369 60.8707 52.719 60.7527 49.6763C60.7134 48.6637 61.0427 47.6659 61.6965 46.8893C62.9499 45.4146 63.6774 43.3993 64.0952 41.7575C65.2504 37.2206 63.6577 32.3493 59.8335 29.6458C57.9902 28.3432 55.7439 27.5813 53.3156 27.5813C49.7323 27.5813 46.5421 29.2476 44.4727 31.8479C43.6469 30.8107 42.6392 29.9211 41.5038 29.228" stroke="#00BCD4" stroke-width="3" stroke-miterlimit="10" stroke-linecap="round"/>
<path d="M44.468 31.8528C44.468 31.8528 45.8787 33.6667 46.5374 35.4805" stroke="#00BCD4" stroke-width="3" stroke-miterlimit="10" stroke-linecap="round"/>
<path d="M35.173 38.4937C33.6836 40.0863 34.3767 41.8215 34.4111 42.9963C34.4652 44.8789 33.1036 45.6064 31.8403 44.9084C30.5279 44.1809 29.8692 40.4747 29.9381 37.4418C29.8594 35.9573 30.6999 34.4581 32.0124 33.7552C33.2216 33.1015 34.5586 33.1948 35.5859 33.6667" stroke="#00BCD4" stroke-width="3" stroke-miterlimit="10" stroke-linecap="round"/>
<path d="M57.8038 49.7943C57.7349 48.0247 58.3199 46.3141 59.4455 44.9869C60.1779 44.1218 60.7973 42.7554 61.2347 41.035C62.1097 37.5991 60.8612 33.9911 58.1282 32.0594C56.7174 31.0615 55.0511 30.5355 53.3159 30.5355C53.198 30.5355 53.0849 30.5503 52.9669 30.5552C53.8173 31.2876 54.6038 32.0937 55.2674 32.9982C56.9632 35.3035 57.8234 38.3904 56.8895 41.0939C56.1669 43.1781 54.4465 44.9625 54.4317 47.1646C54.4219 48.5901 55.1641 49.932 56.162 50.9495C56.6388 51.4361 57.1746 51.8588 57.7349 52.2471C57.8185 51.3033 57.8283 50.4726 57.8038 49.7943Z" fill="#FF5722"/>
</svg>
