<svg width="70" height="31" viewBox="0 0 70 31" fill="none" xmlns="http://www.w3.org/2000/svg">
<path d="M54.3458 13.4604V9.31138C54.3458 5.35723 51.1436 2.15497 47.1894 2.15497C44.8364 2.15497 42.6319 3.31519 41.2953 5.25049L38.2694 9.64088C37.1091 11.3256 36.2505 13.1867 35.7214 15.1405" stroke="#00BCD4" stroke-width="3" stroke-miterlimit="10" stroke-linecap="round"/>
<path d="M35.0951 21.4476V25.5318C35.0951 27.4207 36.6266 28.9522 38.5155 28.9522H50.9256C52.8145 28.9522 54.346 27.4207 54.346 25.5318V19.8002" stroke="#00BCD4" stroke-width="3" stroke-miterlimit="10" stroke-linecap="round"/>
<path d="M15.8395 13.5022V9.31138C15.8395 5.35723 19.0418 2.15497 22.9959 2.15497C25.3489 2.15497 27.5534 3.31519 28.89 5.25049L33.7956 12.3466" stroke="#00BCD4" stroke-width="3" stroke-miterlimit="10" stroke-linecap="round"/>
<path d="M35.0952 25.5318C35.0952 27.4207 33.5636 28.9522 31.6747 28.9522H19.2647C17.3758 28.9522 15.8442 27.4207 15.8442 25.5318V19.8002" stroke="#00BCD4" stroke-width="3" stroke-miterlimit="10" stroke-linecap="round"/>
<path d="M54.3462 25.3925H64.7978C66.566 25.3925 68.0001 23.9585 68.0001 22.1902V12.4069C68.0001 9.51093 66.5335 7.24148 64.4868 5.91879C62.2498 4.47544 59.391 4.39195 56.973 5.51044L56.7549 5.61253" stroke="#00BCD4" stroke-width="3" stroke-miterlimit="10" stroke-linecap="round"/>
<path d="M15.6539 25.3925H5.2023C3.43407 25.3925 2 23.9585 2 22.1902V12.4069C2 9.743 3.23915 7.61277 5.03058 6.2576C7.22579 4.60075 10.1728 4.31766 12.73 5.33404L13.5469 5.659" stroke="#00BCD4" stroke-width="3" stroke-miterlimit="10" stroke-linecap="round"/>
<path d="M46.6234 21.7956H42.8178C41.9592 21.7956 41.2631 21.0996 41.2631 20.241V16.1522C41.2631 15.2936 41.9592 14.5975 42.8178 14.5975H46.6234C47.482 14.5975 48.1782 15.2936 48.1782 16.1522V20.241C48.1828 21.0996 47.482 21.7956 46.6234 21.7956Z" stroke="#FF5722" stroke-width="3" stroke-miterlimit="10" stroke-linecap="round"/>
<path d="M58.4441 15.5536V13.9385C58.4441 13.2609 58.9964 12.7087 59.674 12.7087H62.6767C63.3543 12.7087 63.9066 13.2609 63.9066 13.9385V17.164C63.9066 17.8416 63.3543 18.3939 62.6767 18.3939H59.674" stroke="#FF5722" stroke-width="3" stroke-miterlimit="10" stroke-linecap="round"/>
<path d="M10.3308 18.3986H7.32801C6.65042 18.3986 6.09814 17.8462 6.09814 17.1686V13.9431C6.09814 13.2656 6.65042 12.7133 7.32801 12.7133H10.3308C11.0083 12.7133 11.5606 13.2656 11.5606 13.9431V15.5582" stroke="#FF5722" stroke-width="3" stroke-miterlimit="10" stroke-linecap="round"/>
<path d="M27.2426 21.7956H23.4369C22.5784 21.7956 21.8822 21.0996 21.8822 20.241V16.1522C21.8822 15.2936 22.5784 14.5975 23.4369 14.5975H27.2426C28.1012 14.5975 28.7973 15.2936 28.7973 16.1522V20.241C28.7973 21.0996 28.1012 21.7956 27.2426 21.7956Z" stroke="#FF5722" stroke-width="3" stroke-miterlimit="10" stroke-linecap="round"/>
<path d="M28.7972 18.1989H41.263" stroke="#FF5722" stroke-width="3" stroke-miterlimit="10" stroke-linecap="round"/>
<path d="M48.1829 18.1989L58.4442 15.5535" stroke="#FF5722" stroke-width="3" stroke-miterlimit="10" stroke-linecap="round"/>
<path d="M21.8775 18.1989L11.5605 15.5535" stroke="#FF5722" stroke-width="3" stroke-miterlimit="10" stroke-linecap="round"/>
</svg>
