<svg width="72" height="68" viewBox="0 0 72 68" fill="none" xmlns="http://www.w3.org/2000/svg">
<g clip-path="url(#clip0)">
<path d="M21.1636 15.0421C20.9603 15.0872 20.7833 15.2111 20.6714 15.3867C20.5595 15.5623 20.5219 15.7751 20.5669 15.9784C20.9541 17.7426 21.5288 19.4604 22.2812 21.1025C22.3073 21.1602 22.3326 21.2203 22.3547 21.2791C22.3603 21.2945 22.3665 21.3096 22.3732 21.3246C23.4347 23.7168 24.1834 26.2359 24.6005 28.8197C24.6302 29.0037 24.7244 29.1712 24.8662 29.2921C25.008 29.4131 25.1883 29.4796 25.3747 29.4798C25.4169 29.4798 25.4591 29.4764 25.5008 29.4696C25.6026 29.4532 25.7002 29.4169 25.7879 29.3627C25.8757 29.3086 25.9519 29.2377 26.0123 29.1541C26.0727 29.0705 26.1159 28.9758 26.1397 28.8755C26.1635 28.7752 26.1673 28.6711 26.1508 28.5693C25.7133 25.86 24.9292 23.2181 23.8179 20.7087C23.7841 20.6196 23.7468 20.5308 23.7071 20.4447C23.0017 18.9046 22.4629 17.2935 22.0999 15.6388C22.0549 15.4356 21.9309 15.2585 21.7553 15.1466C21.5798 15.0347 21.3669 14.9971 21.1636 15.0421Z" fill="#00BCD4"/>
<path d="M20.0847 13.0142C20.1049 13.2071 20.1958 13.3856 20.3398 13.5154C20.4838 13.6453 20.6707 13.7172 20.8646 13.7175C20.8923 13.7175 20.9199 13.716 20.9474 13.7132C21.05 13.7024 21.1494 13.6716 21.24 13.6224C21.3307 13.5732 21.4107 13.5067 21.4756 13.4266C21.5406 13.3464 21.5891 13.2543 21.6184 13.1555C21.6477 13.0566 21.6572 12.953 21.6465 12.8504C21.6109 12.5117 21.5821 12.169 21.5608 11.8314C21.5547 11.7282 21.5282 11.6272 21.483 11.5343C21.4378 11.4413 21.3747 11.3582 21.2972 11.2897C21.2198 11.2212 21.1296 11.1687 21.0318 11.1351C20.9341 11.1015 20.8306 11.0876 20.7274 11.0942C20.6243 11.1007 20.5234 11.1275 20.4306 11.1731C20.3379 11.2187 20.255 11.2822 20.1868 11.3599C20.1186 11.4376 20.0665 11.528 20.0333 11.6259C20.0001 11.7238 19.9867 11.8273 19.9936 11.9305C20.0161 12.2895 20.0467 12.6541 20.0847 13.0142Z" fill="#00BCD4"/>
<path d="M40.3136 57.2375C40.5087 57.1794 40.6737 57.0478 40.7737 56.8705C40.8736 56.6931 40.9008 56.4838 40.8494 56.2868C40.7981 56.0898 40.6722 55.9204 40.4983 55.8145C40.3245 55.7085 40.1162 55.6742 39.9176 55.7188L39.5565 55.817V54.5903L40.3136 54.3879C40.5068 54.3282 40.6695 54.1963 40.7679 54.0196C40.8662 53.843 40.8927 53.6352 40.8416 53.4395C40.7906 53.2438 40.666 53.0754 40.4939 52.9693C40.3218 52.8632 40.1153 52.8276 39.9176 52.8699L39.5565 52.9674V51.7394L40.3136 51.537C40.5068 51.4773 40.6695 51.3454 40.7679 51.1687C40.8662 50.9921 40.8927 50.7843 40.8416 50.5886C40.7906 50.3929 40.666 50.2245 40.4939 50.1184C40.3218 50.0123 40.1153 49.9767 39.9176 50.019L39.5565 50.1165V48.8893L40.3136 48.6869C40.5092 48.6292 40.6747 48.4977 40.775 48.3201C40.8754 48.1426 40.9028 47.933 40.8513 47.7357C40.7999 47.5383 40.6736 47.3687 40.4994 47.2628C40.3251 47.1569 40.1165 47.1229 39.9176 47.1681L39.5565 47.2656V46.039L40.3136 45.8366C40.5092 45.7789 40.6747 45.6474 40.775 45.4699C40.8754 45.2924 40.9028 45.0827 40.8513 44.8854C40.7999 44.6881 40.6736 44.5185 40.4994 44.4126C40.3251 44.3066 40.1165 44.2727 39.9176 44.3179L39.5565 44.4155V43.1891L40.3136 42.9866C40.5087 42.9286 40.6737 42.797 40.7737 42.6196C40.8736 42.4422 40.9008 42.233 40.8494 42.036C40.7981 41.8389 40.6722 41.6696 40.4983 41.5636C40.3245 41.4577 40.1162 41.4234 39.9176 41.468L39.5565 41.5655V38.4258H46.2427C46.3436 38.4288 46.444 38.4115 46.538 38.3748C46.6321 38.3381 46.7177 38.2828 46.7899 38.2123C46.862 38.1417 46.9192 38.0573 46.958 37.9641C46.9968 37.8709 47.0163 37.7709 47.0155 37.6699V33.4531H45.4452V36.8555H25.5546V33.4531H23.9843V37.6699C23.9834 37.7708 24.0028 37.8709 24.0415 37.964C24.0802 38.0572 24.1373 38.1416 24.2094 38.2122C24.2815 38.2828 24.3671 38.3381 24.4611 38.3748C24.5551 38.4115 24.6555 38.4288 24.7564 38.4258H31.4433V43.6841L30.6859 43.8865C30.5025 43.9371 30.3436 44.0524 30.2388 44.2111C30.1339 44.3699 30.0902 44.5612 30.1156 44.7497C30.1411 44.9382 30.2341 45.1111 30.3773 45.2363C30.5205 45.3616 30.7042 45.4306 30.8944 45.4307C30.9583 45.4306 31.0219 45.4218 31.0834 45.4045L31.4433 45.307V46.5337L30.6859 46.7361C30.5025 46.7867 30.3436 46.902 30.2388 47.0607C30.1339 47.2195 30.0902 47.4108 30.1156 47.5993C30.1411 47.7878 30.2341 47.9607 30.3773 48.0859C30.5205 48.2112 30.7042 48.2802 30.8944 48.2803C30.9583 48.2801 31.0219 48.2713 31.0834 48.2541L31.4433 48.1566V49.3833L30.6859 49.5857C30.5864 49.6122 30.4932 49.658 30.4116 49.7205C30.3299 49.7831 30.2614 49.8611 30.21 49.9502C30.1585 50.0393 30.1252 50.1377 30.1119 50.2397C30.0986 50.3417 30.1056 50.4454 30.1324 50.5447C30.1773 50.7126 30.2762 50.861 30.414 50.9669C30.5518 51.0728 30.7207 51.1303 30.8944 51.1304C30.9583 51.1303 31.0219 51.1215 31.0834 51.1042L31.4433 51.0067V52.2334L30.6859 52.4359C30.5025 52.4864 30.3436 52.6017 30.2388 52.7604C30.1339 52.9192 30.0902 53.1105 30.1156 53.299C30.1411 53.4876 30.2341 53.6604 30.3773 53.7857C30.5205 53.9109 30.7042 53.9799 30.8944 53.98C30.9583 53.9799 31.0219 53.9711 31.0834 53.9538L31.4433 53.8563V55.083L30.6859 55.2854C30.5864 55.3119 30.4932 55.3577 30.4116 55.4202C30.3299 55.4828 30.2614 55.5609 30.21 55.65C30.1585 55.7391 30.1252 55.8374 30.1119 55.9394C30.0986 56.0414 30.1056 56.1451 30.1324 56.2444C30.1773 56.4123 30.2762 56.5607 30.414 56.6666C30.5518 56.7725 30.7207 56.83 30.8944 56.8301C30.9583 56.83 31.0219 56.8212 31.0834 56.8039L31.4433 56.7064V57.933L30.6859 58.1354C30.5025 58.186 30.3436 58.3013 30.2388 58.46C30.1339 58.6187 30.0902 58.8101 30.1156 58.9986C30.1411 59.1871 30.2341 59.36 30.3773 59.4852C30.5205 59.6104 30.7042 59.6795 30.8944 59.6796C30.9625 59.6795 31.0304 59.6707 31.0962 59.6534L31.4827 59.552C31.5586 60.7436 31.9577 61.8921 32.637 62.8741L34.9434 66.2181C35.0156 66.3228 35.1121 66.4084 35.2247 66.4675C35.3373 66.5267 35.4626 66.5575 35.5898 66.5575H35.6C35.7289 66.5559 35.8554 66.5225 35.9683 66.4604C36.0812 66.3983 36.1771 66.3093 36.2475 66.2013L38.4704 62.818C39.1754 61.7459 39.5529 60.4916 39.5565 59.2085V57.4396L40.3136 57.2375ZM33.0136 38.4258H37.9862V41.978L33.0136 43.2714V38.4258ZM33.0136 44.8949L37.9862 43.6015V44.8282L33.0136 46.1216V44.8949ZM33.0136 47.7452L37.9862 46.4518V47.6783L33.0136 48.9717V47.7452ZM33.0136 50.5957L37.9862 49.3023V50.5288L33.0136 51.8224V50.5957ZM33.0136 53.446L37.9862 52.1525V53.3791L33.0136 54.6725V53.446ZM33.0136 56.2962L37.9862 55.0027V56.2293L33.0136 57.5227V56.2962ZM37.9862 59.2087C37.982 60.1871 37.693 61.143 37.1545 61.9598L35.5784 64.366L33.9335 61.9857C33.3597 61.15 33.0533 60.1598 33.0548 59.1461L37.9862 57.8528V59.2087Z" fill="#FF5722"/>
<path d="M19.2163 22.3824C19.2262 22.4149 19.2382 22.4468 19.2523 22.4778C20.9535 26.2351 21.6796 29.4735 21.6796 33.3351C21.6799 33.4375 21.7004 33.5389 21.7401 33.6334C21.7798 33.7278 21.8379 33.8135 21.9109 33.8853C21.9839 33.9572 22.0705 34.0139 22.1655 34.0521C22.2606 34.0903 22.3623 34.1093 22.4648 34.1079H48.3374C48.4398 34.1093 48.5415 34.0903 48.6366 34.0521C48.7317 34.0139 48.8182 33.9572 48.8912 33.8853C48.9643 33.8135 49.0223 33.7278 49.062 33.6334C49.1017 33.5389 49.1223 33.4375 49.1225 33.3351C49.1225 29.732 49.8829 26.589 51.7474 22.4716C51.7571 22.4503 51.7657 22.4316 51.7736 22.4096C53.2389 19.1682 54.1026 15.6875 54.3227 12.1371C54.4145 10.6884 54.1592 9.23865 53.5779 7.90844C52.9967 6.57823 52.1063 5.40597 50.9808 4.4891C49.8554 3.57224 48.5273 2.93725 47.1071 2.63692C45.6868 2.3366 44.2154 2.37961 42.8151 2.76238L39.4886 3.66597C36.8766 4.37514 34.1226 4.37451 31.5109 3.66413L28.1901 2.76055C26.7893 2.37721 25.3173 2.33384 23.8964 2.63405C22.4754 2.93426 21.1467 3.56937 20.0207 4.48657C18.8947 5.40376 18.004 6.57653 17.4226 7.90735C16.8411 9.23817 16.5858 10.6886 16.6779 12.1379C16.8989 15.6779 17.7589 19.1487 19.2163 22.3824ZM20.7403 5.93651C21.6805 5.09265 22.8176 4.49838 24.0471 4.20822C25.2767 3.91805 26.5595 3.94128 27.7778 4.27577L31.0987 5.17948C33.9802 5.96317 37.0186 5.96389 39.9005 5.18158L43.2272 4.27865C44.3865 3.96174 45.6047 3.92611 46.7805 4.17471C47.9564 4.42331 49.0559 4.94897 49.9878 5.70799C50.9196 6.46701 51.6568 7.43748 52.1381 8.53873C52.6195 9.63998 52.831 10.8402 52.7552 12.0397C52.5461 15.423 51.719 18.7393 50.315 21.8247C50.3039 21.8448 50.294 21.8655 50.2853 21.8868C48.5035 25.8377 47.6715 29.1347 47.5641 32.5371H23.2404C23.1475 28.873 22.38 25.5931 20.7279 21.9173C20.7173 21.8834 20.7042 21.8504 20.6886 21.8185C19.284 18.734 18.4559 15.4184 18.2453 12.0357C18.1692 10.8962 18.3544 9.75435 18.7868 8.69731C19.2192 7.64027 19.8874 6.69598 20.7403 5.93651Z" fill="#00BCD4"/>
</g>
<defs>
<clipPath id="clip0">
<rect width="72" height="68" fill="white"/>
</clipPath>
</defs>
</svg>
