<svg width="72" height="68" viewBox="0 0 72 68" fill="none" xmlns="http://www.w3.org/2000/svg">
<g clip-path="url(#clip0)">
<path d="M30.6105 55.1735C30.592 55.0427 30.5975 54.9109 30.5901 54.7798L30.4747 52.8378C30.2175 50.9851 29.4525 49.2396 28.2645 47.7948C27.0764 46.3499 25.5117 45.2621 23.7436 44.6517L23.1331 44.4393C22.2894 44.1457 21.5231 43.6651 20.8914 43.0335L17.927 40.0699L16.9268 36.639C16.6846 35.7317 16.1716 34.9198 15.4562 34.3114C14.7408 33.703 13.857 33.3272 12.9225 33.2339L12.7603 32.693C12.7584 32.6868 12.7565 32.6805 12.7544 32.6742C12.2802 31.2252 10.7076 30.2906 9.10105 30.3902L9.05486 30.2362C8.74767 29.2047 8.05445 28.3313 7.11952 27.7981C6.1846 27.2648 5.08002 27.1127 4.03575 27.3734C3.8415 27.4216 3.67299 27.5422 3.56466 27.7104C3.45633 27.8787 3.41635 28.082 3.4529 28.2788L6.53451 44.8203C6.75404 46.0296 7.20088 47.1863 7.85135 48.2291C8.64616 49.4916 9.68686 50.5812 10.9115 51.4332L18.0134 56.3251C18.0272 56.3345 18.0412 56.3436 18.0556 56.3522C18.5527 56.6486 18.9235 57.1173 19.0975 57.6693L19.6372 64.9609C19.6486 65.1151 19.7053 65.2625 19.8001 65.3846C19.8949 65.5067 20.0236 65.598 20.1702 65.6473L20.3162 65.6963C23.5138 66.7786 26.9748 66.8026 30.1871 65.7649L30.5244 65.6507C30.6807 65.5989 30.8162 65.4982 30.911 65.3636C31.0057 65.2289 31.0547 65.0674 31.0508 64.9028V60.8217C31.04 58.9308 30.8928 57.0432 30.6105 55.1735ZM15.4123 37.0538L15.7335 38.1771C15.2697 37.9298 14.7695 37.7575 14.2517 37.6668L13.4371 34.9507C13.9112 35.1165 14.3383 35.3943 14.6822 35.7604C15.0261 36.1265 15.2765 36.5702 15.4123 37.0538ZM11.2596 33.1542L12.6074 37.6498C12.1855 37.7144 11.7737 37.8332 11.3822 38.0031L9.57568 31.9744C10.3063 32.0548 11.0293 32.4668 11.2596 33.1545V33.1542ZM29.4804 64.3286C26.7648 65.1667 23.8592 65.1636 21.1453 64.3196L20.6481 57.4683C20.6458 57.4158 20.6382 57.3637 20.6254 57.3127C20.3566 56.3545 19.7334 55.5344 18.8823 55.0187L11.8028 50.1416C10.1464 48.9881 8.89802 47.3393 8.23699 45.4321L5.15041 28.8215C5.69484 28.8432 6.21886 29.0346 6.64907 29.369C7.07929 29.7033 7.39416 30.1639 7.54958 30.6861L10.0122 38.8948C9.95988 38.9432 9.90798 38.9929 9.8565 39.044C9.79418 39.1047 9.74287 39.1758 9.70484 39.2541C9.63096 39.4068 9.60832 39.5793 9.64026 39.746C9.6722 39.9126 9.75703 40.0645 9.88215 40.179L13.4401 43.4283C14.2869 44.2018 15.0747 45.0375 15.7971 45.9283C15.9286 46.0866 16.117 46.1869 16.3218 46.2077C16.5265 46.2285 16.7312 46.1681 16.8918 46.0394C17.0525 45.9108 17.1562 45.7242 17.1806 45.5199C17.2051 45.3156 17.1483 45.1098 17.0226 44.9469C16.2493 43.9926 15.4058 43.0976 14.499 42.2691L11.6226 39.6419C12.2753 39.2514 13.0397 39.0898 13.7946 39.1826C14.5495 39.2755 15.2519 39.6175 15.7906 40.1544L19.7805 44.1434C20.5798 44.9426 21.5495 45.5507 22.617 45.9223L23.2276 46.1348C24.7178 46.6492 26.0372 47.5647 27.0407 48.7805C28.0442 49.9963 28.6929 51.4654 28.9154 53.0261L29.023 54.879C29.037 55.1208 29.0736 55.5151 29.1062 55.7551C29.3466 57.4334 29.4716 59.1263 29.4804 60.8217V64.3286Z" fill="#00BCD4"/>
<path d="M66.9646 27.3734C65.9204 27.1127 64.8159 27.2648 63.881 27.798C62.9461 28.3313 62.2529 29.2046 61.9458 30.2361L61.8997 30.3903C60.2929 30.29 58.7198 31.225 58.2453 32.6743C58.2432 32.6806 58.2413 32.6874 58.2394 32.693L58.0772 33.234C57.1427 33.3272 56.2589 33.7031 55.5435 34.3114C54.8281 34.9198 54.3151 35.7317 54.0729 36.6391L53.0653 40.0699L50.1052 43.0335C49.4733 43.6641 48.7078 44.1445 47.8652 44.4393L47.2555 44.6517C45.4874 45.2622 43.9228 46.35 42.7349 47.7949C41.547 49.2397 40.7821 50.9851 40.525 52.8379L40.41 54.7798C40.4023 54.9107 40.4081 55.0434 40.3896 55.1734C40.1073 57.0432 39.9601 58.9308 39.9492 60.8217V64.9028C39.9491 65.0684 40.0007 65.2298 40.0969 65.3645C40.1931 65.4992 40.3291 65.6004 40.4857 65.654C43.7197 66.7465 47.2197 66.7676 50.4666 65.7143L50.6637 65.6489C50.8088 65.6013 50.9369 65.5125 51.0322 65.3932C51.1275 65.2739 51.1859 65.1294 51.2002 64.9774L51.9006 57.6764C52.0733 57.1212 52.4451 56.6494 52.9445 56.3516C52.9589 56.3429 52.9729 56.3339 52.9866 56.3245L60.0903 51.4313C61.5481 50.4163 62.7419 49.0673 63.5721 47.497C63.9882 46.6981 64.281 45.8407 64.4403 44.9541L67.5475 28.2788C67.584 28.0821 67.544 27.8788 67.4357 27.7105C67.3274 27.5422 67.1589 27.4216 66.9646 27.3734ZM59.7404 33.1545C59.9704 32.4665 60.6947 32.0541 61.4259 31.9739L59.62 38.0037C59.228 37.8335 58.8156 37.7147 58.3931 37.6503L59.7404 33.1545ZM55.5877 37.0541C55.7234 36.5705 55.9739 36.1267 56.3177 35.7605C56.6616 35.3944 57.0887 35.1165 57.5629 34.9507L56.7483 37.6679C56.2316 37.7586 55.7325 37.9306 55.2696 38.1773L55.5877 37.0541ZM62.7622 45.4318C62.1013 47.3383 60.8535 48.9866 59.1977 50.1399L52.1153 55.0188C51.2635 55.5345 50.6397 56.3548 50.3702 57.3134C50.3573 57.3587 50.3485 57.4051 50.344 57.452L49.7044 64.3128C47.036 65.1159 44.1911 65.1217 41.5195 64.3294V60.8217C41.5305 59.0051 41.6724 57.1916 41.9439 55.3954C41.9686 55.222 41.9769 55.0455 41.987 54.8708L42.0893 53.0257C42.3114 51.4652 42.9596 49.9963 43.9627 48.7805C44.9658 47.5647 46.2848 46.6492 47.7746 46.1347L48.3839 45.9223C49.4504 45.5495 50.4194 44.9417 51.2193 44.144L55.2095 40.1545C55.7481 39.6174 56.4504 39.2753 57.2054 39.1825C57.9603 39.0896 58.7246 39.2513 59.3773 39.6419L56.5007 42.2686C55.5941 43.0972 54.7506 43.9923 53.9773 44.9465C53.8516 45.1094 53.7949 45.3152 53.8193 45.5195C53.8438 45.7239 53.9475 45.9104 54.1081 46.0391C54.2688 46.1677 54.4735 46.2281 54.6782 46.2073C54.8829 46.1866 55.0713 46.0863 55.2028 45.928C55.9252 45.0372 56.7131 44.2015 57.5599 43.4279L61.1062 40.1899C61.1909 40.115 61.259 40.0232 61.3061 39.9203C61.3709 39.7749 61.3901 39.6133 61.3611 39.4568C61.3322 39.3003 61.2565 39.1562 61.144 39.0436C61.093 38.9924 61.041 38.9426 60.9881 38.8943L63.4508 30.6855C63.6061 30.1632 63.921 29.7027 64.3512 29.3683C64.7814 29.034 65.3054 28.8426 65.8498 28.821L62.7622 45.4318Z" fill="#00BCD4"/>
<path d="M38.1423 38.8784C38.252 38.8454 38.3448 38.7705 38.4011 38.6695C38.4573 38.5685 38.4726 38.4494 38.4437 38.3373C38.4148 38.2251 38.344 38.1287 38.2462 38.0684C38.1484 38.0081 38.0313 37.9886 37.9195 38.014L37.7164 38.0698V37.3716L38.1423 37.2564C38.2509 37.2224 38.3425 37.1473 38.3978 37.0467C38.4531 36.9462 38.468 36.8279 38.4393 36.7165C38.4106 36.6051 38.3405 36.5093 38.2437 36.4489C38.1469 36.3885 38.0307 36.3682 37.9195 36.3923L37.7164 36.4478V35.7488L38.1423 35.6336C38.2509 35.5996 38.3425 35.5245 38.3978 35.424C38.4531 35.3234 38.468 35.2051 38.4393 35.0937C38.4106 34.9824 38.3405 34.8865 38.2437 34.8261C38.1469 34.7657 38.0307 34.7454 37.9195 34.7695L37.7164 34.825V34.1264L38.1423 34.0112C38.2523 33.9784 38.3454 33.9035 38.4018 33.8025C38.4583 33.7014 38.4737 33.5821 38.4447 33.4698C38.4158 33.3574 38.3448 33.2609 38.2468 33.2006C38.1487 33.1403 38.0314 33.121 37.9195 33.1467L37.7164 33.2022V32.504L38.1423 32.3888C38.2523 32.356 38.3454 32.2811 38.4018 32.1801C38.4583 32.079 38.4737 31.9597 38.4447 31.8473C38.4158 31.735 38.3448 31.6385 38.2468 31.5782C38.1487 31.5179 38.0314 31.4986 37.9195 31.5243L37.7164 31.5799V30.8818L38.1423 30.7665C38.252 30.7335 38.3448 30.6586 38.4011 30.5576C38.4573 30.4566 38.4726 30.3375 38.4437 30.2254C38.4148 30.1132 38.344 30.0168 38.2462 29.9565C38.1484 29.8962 38.0313 29.8767 37.9195 29.9021L37.7164 29.9576V28.1704H41.4774C41.5341 28.1721 41.5906 28.1623 41.6435 28.1414C41.6964 28.1205 41.7446 28.089 41.7852 28.0488C41.8258 28.0087 41.8579 27.9606 41.8797 27.9076C41.9015 27.8545 41.9125 27.7976 41.9121 27.7401V25.3398H41.0288V27.2765H29.8403V25.3398H28.957V27.7401C28.9565 27.7976 28.9675 27.8545 28.9892 27.9076C29.011 27.9606 29.0431 28.0086 29.0837 28.0488C29.1242 28.089 29.1724 28.1205 29.2253 28.1414C29.2781 28.1623 29.3346 28.1721 29.3913 28.1704H33.1527V31.1635L32.7267 31.2788C32.6235 31.3075 32.5342 31.3732 32.4752 31.4635C32.4162 31.5539 32.3916 31.6628 32.4059 31.7701C32.4203 31.8774 32.4725 31.9758 32.5531 32.0471C32.6336 32.1184 32.737 32.1577 32.844 32.1577C32.8799 32.1577 32.9157 32.1527 32.9503 32.1428L33.1527 32.0873V32.7856L32.7267 32.9008C32.6235 32.9296 32.5342 32.9952 32.4752 33.0856C32.4162 33.1759 32.3916 33.2849 32.4059 33.3922C32.4203 33.4995 32.4725 33.5979 32.5531 33.6692C32.6336 33.7404 32.737 33.7797 32.844 33.7798C32.8799 33.7797 32.9157 33.7747 32.9503 33.7649L33.1527 33.7094V34.4076L32.7267 34.5229C32.6708 34.5379 32.6183 34.564 32.5724 34.5996C32.5264 34.6352 32.4879 34.6796 32.459 34.7304C32.4301 34.7811 32.4113 34.8371 32.4038 34.8951C32.3964 34.9532 32.4003 35.0122 32.4154 35.0687C32.4406 35.1643 32.4963 35.2488 32.5738 35.3091C32.6513 35.3693 32.7463 35.4021 32.844 35.4021C32.8799 35.4021 32.9157 35.397 32.9503 35.3872L33.1527 35.3317V36.03L32.7267 36.1452C32.6235 36.174 32.5342 36.2396 32.4752 36.33C32.4162 36.4203 32.3916 36.5293 32.4059 36.6366C32.4203 36.7439 32.4725 36.8423 32.5531 36.9136C32.6336 36.9848 32.737 37.0241 32.844 37.0242C32.8799 37.0241 32.9157 37.0191 32.9503 37.0093L33.1527 36.9538V37.652L32.7267 37.7673C32.6708 37.7823 32.6183 37.8084 32.5724 37.844C32.5264 37.8796 32.4879 37.924 32.459 37.9748C32.4301 38.0255 32.4113 38.0815 32.4038 38.1395C32.3964 38.1976 32.4003 38.2566 32.4154 38.3131C32.4406 38.4087 32.4963 38.4932 32.5738 38.5535C32.6513 38.6137 32.7463 38.6465 32.844 38.6465C32.8799 38.6465 32.9157 38.6414 32.9503 38.6316L33.1527 38.5761V39.2743L32.7267 39.3895C32.6235 39.4183 32.5342 39.484 32.4752 39.5743C32.4162 39.6647 32.3916 39.7736 32.4059 39.8809C32.4203 39.9882 32.4725 40.0866 32.5531 40.1579C32.6336 40.2292 32.737 40.2685 32.844 40.2685C32.8823 40.2684 32.9205 40.2634 32.9575 40.2536L33.1749 40.1959C33.2176 40.8742 33.4421 41.5279 33.8242 42.0869L35.1215 43.9904C35.1621 44.05 35.2164 44.0987 35.2798 44.1324C35.3431 44.166 35.4136 44.1836 35.4851 44.1836H35.4909C35.5634 44.1826 35.6345 44.1637 35.698 44.1283C35.7616 44.0929 35.8155 44.0423 35.8551 43.9808L37.1055 42.055C37.5021 41.4447 37.7143 40.7307 37.7164 40.0003V38.9935L38.1423 38.8784ZM34.036 28.1704H36.8331V30.1924L34.036 30.9286V28.1704ZM34.036 31.8528L36.8331 31.1165V31.8148L34.036 32.551V31.8528ZM34.036 33.4752L36.8331 32.739V33.4371L34.036 34.1734V33.4752ZM34.036 35.0978L36.8331 34.3615V35.0597L34.036 35.796V35.0978ZM34.036 36.7202L36.8331 35.984V36.6821L34.036 37.4184V36.7202ZM34.036 38.3426L36.8331 37.6063V38.3046L34.036 39.0408V38.3426ZM36.8331 40.0005C36.8308 40.5574 36.6682 41.1015 36.3653 41.5665L35.4787 42.9361L34.5535 41.5812C34.2307 41.1055 34.0584 40.5418 34.0592 39.9648L36.8331 39.2287V40.0005Z" fill="#FF5722"/>
<path d="M26.1037 18.9981C26.1094 19.0168 26.1163 19.0351 26.1243 19.0529C27.0991 21.2109 27.5152 23.0707 27.5152 25.2885C27.5154 25.3474 27.5271 25.4056 27.5499 25.4598C27.5726 25.5141 27.6059 25.5633 27.6477 25.6046C27.6896 25.6458 27.7392 25.6784 27.7936 25.7003C27.8481 25.7223 27.9064 25.7332 27.9651 25.7324H42.7903C42.849 25.7332 42.9073 25.7223 42.9618 25.7003C43.0163 25.6784 43.0659 25.6458 43.1077 25.6046C43.1496 25.5633 43.1828 25.5141 43.2056 25.4598C43.2283 25.4056 43.2401 25.3474 43.2402 25.2885C43.2402 23.2192 43.676 21.4141 44.7443 19.0494C44.7499 19.0371 44.7548 19.0264 44.7593 19.0137C45.5989 17.1521 46.0939 15.1531 46.22 13.114C46.2726 12.2819 46.1263 11.4493 45.7932 10.6854C45.4602 9.92138 44.95 9.24812 44.3051 8.72154C43.6602 8.19496 42.8992 7.83027 42.0854 7.65778C41.2715 7.4853 40.4284 7.51 39.626 7.72984L37.72 8.24879C36.2232 8.65609 34.6452 8.65573 33.1487 8.24774L31.2458 7.72878C30.4431 7.50862 29.5996 7.48371 28.7854 7.65613C27.9712 7.82855 27.2099 8.19331 26.5647 8.72008C25.9195 9.24685 25.409 9.9204 25.0759 10.6847C24.7427 11.449 24.5964 12.2821 24.6492 13.1145C24.7758 15.1476 25.2686 17.1409 26.1037 18.9981ZM26.977 9.55282C27.5157 9.06817 28.1673 8.72687 28.8718 8.56022C29.5764 8.39357 30.3114 8.40691 31.0095 8.59902L32.9125 9.11804C34.5636 9.56813 36.3046 9.56855 37.9559 9.11924L39.8622 8.60067C40.5265 8.41866 41.2245 8.39819 41.8983 8.54097C42.572 8.68375 43.2021 8.98565 43.736 9.42157C44.27 9.8575 44.6924 10.4149 44.9682 11.0473C45.244 11.6798 45.3652 12.3691 45.3218 13.058C45.202 15.0011 44.7281 16.9058 43.9236 18.6778C43.9172 18.6894 43.9115 18.7013 43.9065 18.7135C42.8856 20.9826 42.4088 22.8762 42.3473 24.8302H28.4095C28.3563 22.7258 27.9165 20.8421 26.9699 18.731C26.9638 18.7116 26.9563 18.6926 26.9474 18.6743C26.1425 16.9028 25.668 14.9985 25.5473 13.0558C25.5037 12.4013 25.6098 11.7455 25.8576 11.1384C26.1054 10.5313 26.4882 9.989 26.977 9.55282Z" fill="#00BCD4"/>
</g>
<defs>
<clipPath id="clip0">
<rect width="72" height="68" fill="white"/>
</clipPath>
</defs>
</svg>
